<?xml version="1.0" encoding="utf-8"?>
<!-- Generator: Adobe Illustrator 14.0.0, SVG Export Plug-In . SVG Version: 6.00 Build 43363)  -->
<!DOCTYPE svg PUBLIC "-//W3C//DTD SVG 1.1//EN" "http://www.w3.org/Graphics/SVG/1.1/DTD/svg11.dtd">
<svg version="1.1" id="Layer_1" xmlns="http://www.w3.org/2000/svg" xmlns:xlink="http://www.w3.org/1999/xlink" x="0px" y="0px"
	 width="504px" height="504px" viewBox="0 0 504 504" enable-background="new 0 0 504 504" xml:space="preserve">
<path d="M6.876,497.39h490.132V7.238H6.876V497.39z M86.924,427.78c4.719-7.246,16.897-2.912,15.791,6.578
	c-0.27,2.313-2.567,6.25-4.118,8.129c-6.642,8.045-20.477,14.287-34.956,13.254c7.282-3.121,22.12-6.279,25.943-15.605
	C85.964,436.907,84.411,431.64,86.924,427.78z M79.372,420.228c-3.858,2.514-9.127,0.961-12.355-2.66
	c-9.326,3.824-12.484,18.662-15.604,25.943c-1.034-14.479,5.209-28.314,13.253-34.955c1.879-1.551,5.817-3.85,8.13-4.119
	C82.285,403.329,86.618,415.509,79.372,420.228z M63.19,468.323c0.274-0.141,40.35-20.893,54.117-27.795
	c1.757,6.059-1.705,12.102-6.433,14.217c5.854,2.168,13.842,6.035,13.845,13.578H63.19z M238.848,465.276
	c-20.408,1.859-23.358-18.57-40.281-20.986c1.583-3.654,8.174-5.869,13.202-6.43c20.089-2.248,31.86,9.492,34.526,25.385
	C244.037,464.169,241.047,465.077,238.848,465.276z M152.008,347.482l-0.342,0.342c-23.67-24.857-38.205-58.492-38.205-95.519
	c0-36.776,14.337-70.201,37.724-94.996l0.486,0.486c-0.969,1.987-1.516,4.218-1.516,6.578c0,8.31,6.736,15.046,15.046,15.046
	c2.36,0,4.591-0.546,6.579-1.515l0.596,0.597c-17.974,19.366-28.971,45.297-28.97,73.803c0,28.758,11.188,54.898,29.443,74.326
	l-0.42,0.42c-2.146-1.179-4.607-1.854-7.229-1.854c-8.31,0-15.046,6.74-15.046,15.053
	C150.157,342.875,150.83,345.338,152.008,347.482z M351.871,157.139l0.338-0.34c23.674,24.847,38.213,58.478,38.211,95.507
	c0,36.823-14.375,70.293-37.816,95.112l-0.455-0.455c1.008-2.021,1.578-4.299,1.578-6.713c0-8.313-6.736-15.053-15.047-15.053
	c-2.41,0-4.688,0.571-6.707,1.58l-0.561-0.56c18.029-19.386,29.064-45.356,29.064-73.912c0-28.761-11.191-54.902-29.451-74.323
	l0.42-0.418c2.146,1.181,4.611,1.856,7.236,1.855c8.309,0,15.045-6.736,15.045-15.046
	C353.727,161.75,353.053,159.285,351.871,157.139z M345.941,340.25c-0.002,4.013-3.252,7.264-7.26,7.264
	c-4.01,0-7.262-3.251-7.262-7.264c0-4.01,3.252-7.264,7.262-7.264C342.689,332.986,345.941,336.238,345.941,340.25z
	 M174.724,280.105c-1.758-6.059,1.706-12.103,6.432-14.218c-5.854-2.169-13.843-6.038-13.843-13.583s7.988-11.413,13.844-13.582
	c-4.728-2.115-8.19-8.157-6.433-14.218c14.701,7.38,54.123,27.801,54.123,27.801S188.539,273.18,174.724,280.105z M185.859,312.719
	l-3.92,3.922c-15.567-16.934-25.075-39.521-25.075-64.336c0-25.134,9.757-47.984,25.684-64.985l3.919,3.92
	c-14.925,15.996-24.063,37.462-24.063,61.066C162.403,275.588,171.292,296.795,185.859,312.719z M275.492,264.892
	c14.48-1.035,28.314,5.21,34.955,13.253c1.551,1.879,3.85,5.818,4.119,8.131c1.107,9.49-11.072,13.824-15.791,6.576
	c-2.514-3.857-0.961-9.125,2.66-12.354C297.611,271.17,282.773,268.012,275.492,264.892z M280.133,301.801
	c3.229-3.621,8.498-5.174,12.355-2.662c7.246,4.721,2.912,16.9-6.576,15.794c-2.313-0.27-6.252-2.569-8.131-4.12
	c-8.045-6.641-14.287-20.477-13.254-34.955C267.648,283.139,270.807,297.977,280.133,301.801z M205.108,292.852
	c-4.721,7.248-16.898,2.914-15.792-6.576c0.27-2.313,2.567-6.252,4.119-8.131c6.641-8.043,20.476-14.288,34.955-13.252
	c-7.282,3.119-22.119,6.277-25.943,15.605C206.067,283.727,207.621,288.994,205.108,292.852z M211.395,299.139
	c3.858-2.512,9.126-0.959,12.354,2.662c9.328-3.824,12.485-18.662,15.605-25.943c1.034,14.479-5.21,28.313-13.253,34.955
	c-1.879,1.551-5.817,3.851-8.131,4.12C208.482,316.039,204.149,303.859,211.395,299.139z M251.941,275.4
	c0,0,20.42,39.423,27.801,54.13c-6.061,1.759-12.104-1.704-14.219-6.435c-2.17,5.857-6.037,13.851-13.582,13.851
	c-7.545,0-11.414-7.991-13.583-13.851c-2.115,4.73-8.158,8.193-14.216,6.435C231.069,315.711,251.941,275.4,251.941,275.4z
	 M251.942,272.189c-10.982,0-19.885-8.903-19.886-19.884c0-10.982,8.903-19.886,19.886-19.886
	c10.982,0.001,19.884,8.903,19.884,19.885C271.826,263.287,262.924,272.189,251.942,272.189z M228.39,239.719
	c-14.479,1.034-28.314-5.209-34.955-13.253c-1.552-1.879-3.85-5.818-4.119-8.13c-1.106-9.49,11.072-13.824,15.792-6.577
	c2.513,3.858,0.959,9.126-2.661,12.354C206.27,233.44,221.108,236.599,228.39,239.719z M223.749,202.81
	c-3.228,3.622-8.495,5.175-12.354,2.663c-7.246-4.721-2.913-16.898,6.576-15.793c2.313,0.27,6.252,2.567,8.131,4.119
	c8.044,6.642,14.288,20.476,13.253,34.955C236.235,221.472,233.077,206.635,223.749,202.81z M224.142,175.089
	c6.06-1.758,12.102,1.704,14.217,6.432c2.169-5.856,6.038-13.845,13.583-13.845c7.544,0,11.412,7.989,13.582,13.845
	c2.115-4.728,8.158-8.189,14.217-6.433c-7.377,14.701-27.799,54.123-27.799,54.123S231.068,188.901,224.142,175.089z
	 M264.527,228.754c-1.033-14.479,5.209-28.314,13.254-34.955c1.879-1.552,5.818-3.85,8.131-4.119
	c9.488-1.106,13.822,11.072,6.576,15.792c-3.859,2.513-9.127,0.96-12.355-2.662C270.807,206.634,267.648,221.472,264.527,228.754z
	 M301.436,224.113c-3.621-3.229-5.174-8.496-2.66-12.354c4.719-7.247,16.898-2.913,15.791,6.577c-0.27,2.312-2.566,6.251-4.119,8.13
	c-6.641,8.044-20.475,14.287-34.955,13.253C282.775,236.599,297.611,233.44,301.436,224.113z M312.354,186.223
	c-15.924-14.566-37.129-23.455-60.413-23.455c-22.964-0.001-43.906,8.648-59.755,22.862l-3.924-3.924
	c16.855-15.214,39.185-24.479,63.679-24.479c24.813,0,47.403,9.509,64.333,25.076L312.354,186.223z M191.522,318.386
	c15.926,14.577,37.134,23.474,60.419,23.474c23.604,0,45.071-9.145,61.067-24.078l3.918,3.922
	c-17,15.937-39.852,25.697-64.985,25.697c-24.815,0-47.407-9.514-64.338-25.093L191.522,318.386z M275.035,252.306
	c0,0,39.422-20.421,54.123-27.8c1.758,6.06-1.705,12.102-6.432,14.217c5.854,2.169,13.844,6.037,13.844,13.583
	c0,7.544-7.988,11.413-13.844,13.582c4.727,2.115,8.189,8.159,6.432,14.218C315.344,273.18,275.035,252.306,275.035,252.306z
	 M341.479,252.305c0-23.286-8.891-44.493-23.461-60.419l3.92-3.919c15.57,16.932,25.082,39.522,25.082,64.339
	c0,24.495-9.266,46.823-24.48,63.681l-3.924-3.926C332.83,296.211,341.479,275.27,341.479,252.305z M331.422,164.374
	c-0.002-4.009,3.25-7.26,7.26-7.26c4.008-0.001,7.258,3.251,7.26,7.26c0,4.01-3.252,7.26-7.262,7.261
	C334.672,171.634,331.422,168.384,331.422,164.374z M346.285,151.396c-2.232-1.312-4.83-2.067-7.605-2.067
	c-8.309,0-15.045,6.736-15.045,15.046c0,2.776,0.754,5.375,2.066,7.605l-0.371,0.372c-19.32-17.745-45.088-28.582-73.388-28.582
	c-28.556,0-54.527,11.035-73.905,29.063l-0.237-0.236c1.547-2.363,2.449-5.188,2.448-8.223c0.001-8.31-6.736-15.047-15.046-15.046
	c-3.034,0-5.857,0.903-8.221,2.449l-0.129-0.128c24.806-23.442,58.266-37.824,95.089-37.824c36.571,0,69.821,14.184,94.575,37.34
	L346.285,151.396z M172.462,164.374c0,4.01-3.251,7.26-7.261,7.26s-7.26-3.25-7.26-7.26c0-4.009,3.251-7.26,7.26-7.26
	C169.211,157.114,172.461,160.365,172.462,164.374z M172.462,340.25c-0.001,4.013-3.251,7.266-7.261,7.264
	c-4.009,0-7.26-3.251-7.26-7.264c0-4.01,3.251-7.264,7.26-7.264C169.211,332.986,172.462,336.238,172.462,340.25z M157.589,353.229
	c2.233,1.314,4.833,2.072,7.612,2.072c8.31,0,15.047-6.736,15.047-15.052c0-2.778-0.757-5.381-2.071-7.615l0.369-0.371
	c19.321,17.757,45.091,28.597,73.396,28.595c28.505,0.002,54.437-10.996,73.804-28.978l0.262,0.262
	c-1.5,2.342-2.373,5.122-2.373,8.107c0,8.315,6.736,15.052,15.045,15.05c2.986,0.002,5.766-0.871,8.104-2.373l0.146,0.146
	c-24.795,23.387-58.213,37.73-94.989,37.73c-36.572,0-69.827-14.186-94.58-37.346L157.589,353.229z M240.391,428.382
	c0.632-3.406,1.863-6.879,3.723-10.832c1.043-2.219,5.318-7.955,7.828-8.082c2.509,0.127,6.785,5.863,7.828,8.082
	c1.859,3.953,3.09,7.426,3.723,10.832c2.656,14.285-5.887,26.939-11.55,32.877C246.277,455.321,237.735,442.667,240.391,428.382z
	 M265.033,465.278c-2.197-0.201-5.188-1.109-7.445-2.031c2.666-15.895,14.436-27.635,34.525-25.389
	c5.029,0.563,11.619,2.777,13.203,6.432C288.393,446.706,285.441,467.136,265.033,465.278z M311.613,468.323
	c0-39.27,14.979-78.537,44.941-108.5c29.961-29.971,69.23-44.959,108.5-44.959l-0.002,13.208
	c-35.889,0.002-71.779,13.701-99.164,41.087c-27.383,27.383-41.074,63.273-41.074,99.164H311.613z M464.895,239.213
	c-0.201,2.197-1.109,5.188-2.031,7.446c-15.895-2.666-27.635-14.438-25.387-34.526c0.563-5.029,2.775-11.62,6.432-13.201
	C446.322,215.853,466.752,218.804,464.895,239.213z M443.908,305.68c-3.656-1.582-5.869-8.172-6.432-13.201
	c-2.248-20.09,9.492-31.862,25.387-34.526c0.922,2.258,1.83,5.247,2.031,7.446C466.752,285.807,446.324,288.758,443.908,305.68z
	 M460.875,252.305c-5.938,5.665-18.592,14.207-32.877,11.552c-3.406-0.633-6.879-1.864-10.832-3.724
	c-2.219-1.043-7.955-5.317-8.082-7.827c0.127-2.51,5.863-6.784,8.082-7.829c3.953-1.858,7.428-3.09,10.832-3.724
	C442.283,238.098,454.938,246.641,460.875,252.305z M386.551,380.864c0,4.01-3.252,7.26-7.26,7.26
	c-4.01,0.002-7.262-3.25-7.262-7.26c0-4.008,3.252-7.258,7.262-7.26C383.299,373.604,386.551,376.854,386.551,380.864z
	 M359.053,468.323c0.002-27.127,10.35-54.256,31.047-74.953c20.699-20.697,47.826-31.047,74.953-31.047v13.432
	c-23.689-0.002-47.381,9.037-65.457,27.111c-18.074,18.076-27.111,41.768-27.111,65.457H359.053z M440.242,455.741
	c-14.48,1.033-28.314-5.209-34.957-13.254c-1.551-1.879-3.85-5.816-4.119-8.129c-1.105-9.49,11.072-13.824,15.793-6.578
	c2.512,3.859,0.959,9.127-2.662,12.355C418.121,449.462,432.959,452.62,440.242,455.741z M379.164,468.323
	c0.002-7.541,7.988-11.408,13.844-13.578c-4.727-2.117-8.189-8.158-6.432-14.217c13.766,6.902,53.842,27.654,54.115,27.795H379.164z
	 M436.865,417.567c-3.229,3.621-8.496,5.174-12.354,2.66c-7.248-4.719-2.914-16.898,6.576-15.791
	c2.313,0.27,6.252,2.568,8.129,4.119c8.045,6.641,14.289,20.477,13.254,34.955C449.352,436.229,446.193,421.392,436.865,417.567z
	 M445.586,468.323c0-4.982,1.9-9.963,5.703-13.766c3.801-3.801,8.783-5.701,13.764-5.701l0.002,19.467H445.586z M437.258,389.845
	c6.059-1.756,12.102,1.705,14.217,6.432c2.17-5.854,6.037-13.84,13.578-13.844l0.002,61.529
	C464.912,443.688,444.16,403.612,437.258,389.845z M465.055,36.306l-0.002,19.467c-4.98,0-9.963-1.9-13.764-5.701
	c-3.803-3.802-5.703-8.784-5.703-13.766H465.055z M465.055,60.667l-0.002,61.528c-7.541-0.002-11.408-7.989-13.578-13.843
	c-2.115,4.726-8.158,8.188-14.217,6.431C444.16,101.017,464.912,60.94,465.055,60.667z M452.471,61.118
	c1.035,14.479-5.209,28.314-13.254,34.955c-1.877,1.551-5.816,3.85-8.129,4.119c-9.49,1.106-13.824-11.072-6.576-15.792
	c3.857-2.513,9.125-0.96,12.354,2.661C446.193,83.237,449.352,68.399,452.471,61.118z M416.959,76.848
	c-4.721,7.247-16.898,2.913-15.793-6.576c0.27-2.313,2.568-6.251,4.119-8.131c6.643-8.044,20.477-14.287,34.957-13.252
	c-7.283,3.119-22.121,6.277-25.945,15.604C417.918,67.722,419.471,72.989,416.959,76.848z M440.691,36.306
	c-0.273,0.141-40.35,20.893-54.115,27.795c-1.758-6.06,1.705-12.102,6.432-14.217c-5.855-2.169-13.842-6.036-13.844-13.578H440.691z
	 M372.484,36.306c0,23.69,9.037,47.381,27.111,65.456c18.076,18.075,41.768,27.113,65.457,27.113v13.431
	c-27.127-0.001-54.254-10.35-74.953-31.048c-20.697-20.696-31.045-47.824-31.045-74.953L372.484,36.306z M386.551,123.765
	c0,4.009-3.25,7.26-7.26,7.259c-4.01,0-7.262-3.251-7.262-7.26s3.252-7.261,7.262-7.26
	C383.299,116.504,386.551,119.755,386.551,123.765z M324.814,36.305c0,35.891,13.691,71.781,41.074,99.164
	c27.385,27.384,63.273,41.076,99.164,41.075l0.002,13.203c-39.27,0-78.539-14.98-108.5-44.942
	c-29.963-29.961-44.941-69.23-44.941-108.499L324.814,36.305z M265.033,39.352c20.408-1.858,23.361,18.572,40.283,20.987
	c-1.584,3.656-8.174,5.869-13.203,6.432c-20.088,2.247-31.859-9.494-34.525-25.387C259.846,40.461,262.836,39.552,265.033,39.352z
	 M263.492,76.248c-0.633,3.405-1.863,6.879-3.723,10.832c-1.043,2.218-5.318,7.954-7.828,8.081c-2.51-0.127-6.784-5.862-7.828-8.082
	c-1.859-3.952-3.09-7.425-3.724-10.831c-2.655-14.285,5.887-26.939,11.552-32.878C257.605,49.309,266.148,61.963,263.492,76.248z
	 M238.848,39.352c2.199,0.2,5.188,1.108,7.447,2.032c-2.665,15.893-14.437,27.633-34.526,25.387
	c-5.029-0.563-11.62-2.775-13.202-6.433C215.489,57.923,218.44,37.493,238.848,39.352z M124.719,36.306
	c-0.003,7.541-7.99,11.409-13.845,13.578c4.728,2.116,8.189,8.158,6.433,14.217C103.54,57.198,63.464,36.446,63.19,36.305
	L124.719,36.306z M63.641,48.889c14.48-1.035,28.314,5.208,34.956,13.252c1.551,1.88,3.849,5.818,4.118,8.131
	c1.106,9.489-11.071,13.823-15.791,6.576c-2.514-3.858-0.961-9.126,2.66-12.355C85.76,55.166,70.923,52.008,63.641,48.889z
	 M67.016,87.062c3.229-3.621,8.497-5.174,12.355-2.661c7.246,4.72,2.913,16.898-6.577,15.792c-2.313-0.27-6.251-2.568-8.13-4.119
	c-8.044-6.641-14.287-20.476-13.253-34.955C54.532,68.399,57.69,83.237,67.016,87.062z M38.829,36.306l19.467-0.001
	c0.001,4.982-1.9,9.965-5.701,13.767c-3.801,3.801-8.784,5.701-13.766,5.701V36.306z M38.829,60.666
	c0.142,0.274,20.894,40.351,27.796,54.118c-6.06,1.756-12.102-1.706-14.218-6.433c-2.169,5.854-6.036,13.841-13.578,13.844V60.666z
	 M38.829,128.875c23.69,0,47.382-9.038,65.457-27.112c18.076-18.076,27.113-41.767,27.113-65.458l13.431,0.001
	c-0.001,27.127-10.351,54.255-31.048,74.953c-20.698,20.697-47.825,31.046-74.953,31.047V128.875z M131.852,123.765
	c0.001,4.009-3.251,7.258-7.26,7.259c-4.01,0-7.26-3.25-7.26-7.259c0-4.01,3.251-7.261,7.26-7.261S131.852,119.755,131.852,123.765z
	 M38.829,176.544c35.891,0,71.78-13.691,99.164-41.074c27.384-27.384,41.075-63.274,41.075-99.164h13.202
	c0,39.269-14.98,78.537-44.942,108.499c-29.961,29.961-69.229,44.942-108.499,44.942V176.544z M38.989,265.398
	c0.199-2.199,1.107-5.188,2.031-7.446c15.894,2.664,27.633,14.437,25.386,34.526c-0.563,5.027-2.775,11.619-6.432,13.201
	C57.559,288.758,37.129,285.807,38.989,265.398z M59.975,198.932c3.656,1.581,5.868,8.172,6.432,13.201
	c2.246,20.089-9.494,31.86-25.388,34.526c-0.923-2.258-1.831-5.249-2.031-7.447C37.129,218.804,57.559,215.854,59.975,198.932z
	 M43.006,252.305c5.938-5.664,18.593-14.207,32.878-11.551c3.405,0.633,6.878,1.864,10.832,3.723
	c2.219,1.044,7.954,5.319,8.081,7.828c-0.127,2.51-5.863,6.784-8.081,7.828c-3.954,1.859-7.427,3.091-10.832,3.724
	C61.599,266.513,48.945,257.97,43.006,252.305z M38.829,314.864c39.27,0,78.538,14.988,108.499,44.959
	c29.962,29.963,44.942,69.23,44.942,108.5h-13.202c0-35.891-13.691-71.781-41.075-99.164
	c-27.384-27.386-63.273-41.087-99.164-41.087V314.864z M131.852,380.864c0,4.01-3.251,7.262-7.26,7.26c-4.009,0-7.26-3.25-7.26-7.26
	s3.25-7.26,7.26-7.258C128.601,373.604,131.853,376.856,131.852,380.864z M38.829,362.323c27.128,0,54.255,10.35,74.953,31.047
	c20.697,20.697,31.047,47.826,31.047,74.953h-13.43c0-23.689-9.038-47.381-27.113-65.457
	c-18.075-18.074-41.767-27.113-65.457-27.113V362.323z M38.829,382.433c7.542,0.004,11.409,7.99,13.578,13.844
	c2.116-4.727,8.158-8.188,14.218-6.432c-6.902,13.768-27.654,53.844-27.796,54.117V382.433z M38.829,448.856
	c4.982,0,9.964,1.9,13.766,5.701c3.801,3.803,5.702,8.783,5.701,13.766H38.829V448.856z"/>
</svg>
