<?xml version="1.0" encoding="utf-8"?>
<!-- Generator: Adobe Illustrator 14.0.0, SVG Export Plug-In . SVG Version: 6.00 Build 43363)  -->
<!DOCTYPE svg PUBLIC "-//W3C//DTD SVG 1.1//EN" "http://www.w3.org/Graphics/SVG/1.1/DTD/svg11.dtd">
<svg version="1.1" id="Layer_1" xmlns="http://www.w3.org/2000/svg" xmlns:xlink="http://www.w3.org/1999/xlink" x="0px" y="0px"
	 width="504px" height="504px" viewBox="0 0 504 504" enable-background="new 0 0 504 504" xml:space="preserve">
<g>
	<path d="M6.813,6.589v490.133h490.133V6.589H6.813z M459.193,36.988c0.609,1.842,1.818,3.568,2.803,4.552
		c0.982,0.983,2.709,2.192,4.551,2.801c-6.311,37.851-24.369,62.095-69.352,61.999C397.1,61.358,421.344,43.298,459.193,36.988z
		 M374.551,43.734c15.686,12.367,13.246,44.607,15.287,69.963c25.355,2.041,57.596-0.398,69.963,15.287
		c6.525,8.277,5.869,27.66-4.906,33.121c-2.777-4.159-5.322-6.862-8.588-9.813c-24.793-22.396-62.615-16.143-99.043,3.981
		c20.121-36.429,26.375-74.251,3.98-99.044c-2.951-3.267-5.654-5.811-9.814-8.587C346.891,37.865,366.273,37.208,374.551,43.734z
		 M259.854,51.094c5.922-9.913,22.832-16.347,35.574-15.334c16.4,1.304,27.764,10.641,35.574,19.014
		c11.836,12.687,19.773,35.153,15.334,57.656c-5.426,27.506-20.746,50.049-38.641,71.149c-1.596,1.88-4.203,4.76-7.471,8.243
		l-9.461-9.46c1.535-1.811,2.908-3.481,4.051-4.917c11.525-14.479,25.621-31.854,32.508-49.068
		c11.467-28.66,2.852-62.52-20.24-75.443c-7.82-4.376-15.055-6.569-24.535-3.066c-5.332,1.971-11.98,7.688-10.426,15.334
		c0.656,3.23,4.293,6.34,7.359,6.134c1.76-0.118,2.643-0.807,3.139-1.786c-1.896-2.823,0.545-10.144,7.105-10.09
		c9.455,0.078,15.342,11.438,6.316,21.689C279.752,99.652,243.979,77.664,259.854,51.094z M386.811,214.854
		c0.252,6.824,1.391,13.189,3.682,17.787c-11.953,1.541-35.973-27.195-23.922-40.481c9.133-10.069,19.83-2.914,21.469,6.133
		C388.92,203.158,386.605,209.268,386.811,214.854z M388.039,305.018c-1.639,9.047-12.336,16.203-21.469,6.135
		c-12.051-13.287,11.969-42.023,23.922-40.482c-2.291,4.598-3.43,10.963-3.68,17.787
		C386.605,294.043,388.92,300.154,388.039,305.018z M345.104,300.111c-25.465-12.904,12.201-47.245,35.574-40.482
		C356.91,269.309,364.613,309.998,345.104,300.111z M380.678,243.682c-23.373,6.763-61.039-27.577-35.574-40.482
		C364.613,193.314,356.912,234.002,380.678,243.682z M371.477,251.655c-6.156,2.847-36.396,10.999-42.32,12.269
		c-12.377,2.649-35.631-1.434-35.574-11.655c0-0.208,0.021-0.411,0.039-0.613c-0.018-0.203-0.039-0.405-0.039-0.613
		c-0.057-10.222,23.197-14.305,35.574-11.655C335.08,240.658,365.32,248.81,371.477,251.655z M304.621,228.347
		c-6.682,7.126-17.725,15.513-17.787,22.695c-0.002,0.203,0.016,0.408,0.029,0.613c-0.014,0.205-0.031,0.41-0.029,0.613
		c0.063,7.182,11.105,15.569,17.787,22.696c2.982,3.178,6.219,6.324,9.375,9.23l-9.203,9.203
		c-13.129-12.719-30.223-30.283-38.813-41.743c8.59-11.459,25.684-29.024,38.813-41.743l9.203,9.203
		C310.84,222.023,307.604,225.168,304.621,228.347z M305.242,387.814c-4.865,0.881-10.975-1.432-16.561-1.227
		c-6.824,0.251-13.189,1.389-17.787,3.68c-1.541-11.953,27.195-35.972,40.48-23.92C321.443,375.479,314.287,386.176,305.242,387.814
		z M321.803,411.736c-0.561,5.727-6.271,9.234-14.107,7.973c-10.221-1.645-18.354-16.663-30.055-14.721
		C284.631,391.49,323.578,393.572,321.803,411.736z M259.854,380.455c-6.764-23.375,27.576-61.039,40.48-35.576
		C310.221,364.39,269.531,356.688,259.854,380.455z M215.078,386.588c-5.586-0.205-11.697,2.107-16.561,1.227
		c-9.047-1.639-16.203-12.334-6.135-21.467c13.287-12.051,42.023,11.967,40.482,23.92
		C228.268,387.977,221.902,386.84,215.078,386.588z M226.119,404.988c-11.703-1.941-19.836,13.076-30.055,14.721
		c-7.836,1.262-13.549-2.246-14.107-7.973C180.18,393.572,219.127,391.49,226.119,404.988z M203.424,344.879
		c12.904-25.463,47.244,12.201,40.482,35.576C234.227,356.688,193.537,364.389,203.424,344.879z M239.611,328.934
		c-2.65-12.377,1.434-35.633,11.654-35.576c0.209,0.002,0.41,0.023,0.613,0.039c0.203-0.016,0.404-0.038,0.613-0.039
		c10.223-0.057,14.305,23.199,11.654,35.575c-1.27,5.923-9.42,36.159-12.268,42.319l0,0
		C249.031,365.092,240.881,334.855,239.611,328.934z M284.42,313.773c-2.908-3.158-6.055-6.394-9.232-9.375
		c-7.125-6.682-15.512-17.725-22.695-17.787c-0.203-0.002-0.408,0.014-0.613,0.029c-0.205-0.016-0.41-0.031-0.613-0.029
		c-7.182,0.063-15.568,11.105-22.695,17.786c-3.18,2.981-6.324,6.218-9.232,9.376l-9.201-9.203
		c12.717-13.129,30.283-30.224,41.742-38.814c11.459,8.591,29.025,25.685,41.744,38.814L284.42,313.773z M116.947,288.457
		c-0.252-6.824-1.389-13.189-3.68-17.787c11.953-1.541,35.971,27.195,23.92,40.481c-9.133,10.069-19.828,2.913-21.467-6.134
		C114.84,300.154,117.152,294.043,116.947,288.457z M115.721,198.293c1.639-9.047,12.334-16.202,21.467-6.134
		c12.051,13.286-11.967,42.023-23.92,40.481c2.291-4.598,3.428-10.963,3.68-17.787C117.152,209.268,114.84,203.158,115.721,198.293z
		 M158.654,203.2c25.465,12.905-12.199,47.245-35.574,40.482C146.848,234.002,139.145,193.314,158.654,203.2z M123.08,259.629
		c23.375-6.762,61.039,27.578,35.576,40.482C139.146,309.997,146.848,269.309,123.08,259.629z M132.281,251.656
		c6.158-2.846,36.396-10.999,42.32-12.268c12.377-2.65,35.633,1.433,35.576,11.654c-0.002,0.208-0.023,0.41-0.039,0.613
		c0.018,0.203,0.037,0.405,0.039,0.613c0.055,10.222-23.199,14.305-35.576,11.655C168.678,262.654,138.439,254.502,132.281,251.656z
		 M199.137,274.965c6.682-7.127,17.727-15.514,17.787-22.696c0.002-0.203-0.014-0.408-0.029-0.613
		c0.016-0.205,0.031-0.41,0.029-0.613c-0.061-7.183-11.105-15.569-17.787-22.696c-2.982-3.179-6.219-6.325-9.375-9.232l9.203-9.203
		c13.129,12.719,30.223,30.285,38.814,41.744c-8.592,11.459-25.686,29.024-38.814,41.743l-9.203-9.201
		C192.92,281.289,196.156,278.144,199.137,274.965z M198.518,115.496c4.863-0.88,10.975,1.432,16.561,1.228
		c6.824-0.252,13.189-1.39,17.787-3.681c1.541,11.953-27.195,35.972-40.482,23.921C182.314,127.832,189.471,117.135,198.518,115.496
		z M181.957,91.576c0.559-5.728,6.271-9.234,14.105-7.974c10.221,1.646,18.354,16.663,30.057,14.721
		C219.127,111.821,180.18,109.74,181.957,91.576z M243.906,122.857c6.762,23.374-27.576,61.04-40.482,35.575
		C193.537,138.922,234.227,146.623,243.906,122.857z M264.146,174.378c2.65,12.377-1.432,35.632-11.654,35.575
		c-0.207-0.001-0.41-0.022-0.613-0.039c-0.203,0.017-0.404,0.038-0.613,0.039c-10.221,0.057-14.305-23.198-11.654-35.576
		c1.27-5.922,9.422-36.158,12.268-42.319v0v0.001C254.727,138.219,262.877,168.456,264.146,174.378z M288.68,116.724
		c5.588,0.204,11.697-2.108,16.561-1.228c9.047,1.639,16.203,12.335,6.135,21.468c-13.285,12.051-42.021-11.968-40.48-23.921
		C275.492,115.334,281.857,116.472,288.68,116.724z M277.641,98.323c11.701,1.942,19.834-13.075,30.055-14.721
		c7.834-1.261,13.547,2.246,14.105,7.974C323.578,109.74,284.631,111.821,277.641,98.323z M300.334,158.432
		c-12.906,25.464-47.244-12.201-40.48-35.575C269.531,146.623,310.221,138.922,300.334,158.432z M219.338,189.538
		c2.908,3.158,6.055,6.393,9.234,9.375c7.125,6.682,15.512,17.725,22.693,17.787c0.203,0.001,0.408-0.014,0.613-0.029
		c0.205,0.015,0.41,0.03,0.613,0.029c7.182-0.063,15.57-11.105,22.695-17.787c3.178-2.982,6.324-6.218,9.232-9.375l9.203,9.203
		c-12.719,13.13-30.285,30.223-41.744,38.813c-11.459-8.59-29.025-25.685-41.742-38.814L219.338,189.538z M251.879,88.563
		c0.598-0.24,1.207-0.465,1.84-0.667c2.906,4.044,6.998,7.458,11.654,9.201c-1.045,6.423-7.311,9.437-13.494,9.243
		c-6.182,0.193-12.447-2.82-13.494-9.243c4.656-1.742,8.748-5.157,11.654-9.2C250.674,88.097,251.283,88.323,251.879,88.563z
		 M208.332,35.76c12.74-1.013,29.652,5.421,35.574,15.334c15.873,26.569-19.898,48.558-36.189,30.054
		c-9.025-10.251-3.139-21.611,6.316-21.689c6.563-0.054,9.002,7.267,7.105,10.089c0.496,0.98,1.379,1.668,3.141,1.787
		c3.064,0.206,6.703-2.904,7.359-6.134c1.553-7.646-5.094-13.363-10.428-15.334c-9.48-3.503-16.715-1.31-24.535,3.066
		c-23.09,12.924-31.707,46.783-20.24,75.443c6.889,17.215,20.984,34.589,32.508,49.069c1.143,1.436,2.516,3.106,4.051,4.916
		l-9.461,9.46c-3.268-3.483-5.875-6.362-7.469-8.243c-17.895-21.101-33.217-43.643-38.643-71.149
		c-4.439-22.503,3.5-44.97,15.334-57.656C180.568,46.4,191.932,37.064,208.332,35.76z M129.209,43.734
		c8.275-6.525,27.658-5.869,33.119,4.907c-4.158,2.776-6.863,5.32-9.813,8.587c-22.396,24.793-16.143,62.615,3.98,99.044
		c-36.43-20.123-74.252-26.376-99.045-3.98c-3.266,2.951-5.811,5.654-8.586,9.813c-10.777-5.461-11.434-24.844-4.908-33.122
		c12.367-15.685,44.607-13.246,69.963-15.287C115.961,88.341,113.521,56.101,129.209,43.734z M41.764,41.54
		c0.982-0.983,2.193-2.71,2.801-4.552c37.852,6.311,62.096,24.37,62,69.352c-44.982,0.097-63.043-24.147-69.354-61.998
		C39.053,43.731,40.779,42.523,41.764,41.54z M35.984,208.107c1.303-16.399,10.639-27.763,19.014-35.575
		c12.688-11.835,35.152-19.773,57.656-15.333c27.506,5.425,50.049,20.747,71.148,38.641c1.881,1.595,4.76,4.203,8.244,7.471
		l-9.461,9.46c-1.811-1.536-3.48-2.907-4.916-4.05c-14.479-11.523-31.854-25.62-49.068-32.508
		c-28.66-11.467-62.52-2.851-75.443,20.241c-4.375,7.819-6.57,15.054-3.066,24.534c1.971,5.333,7.688,11.98,15.334,10.427
		c3.23-0.656,6.34-4.294,6.133-7.36c-0.117-1.761-0.805-2.643-1.787-3.139c-2.822,1.896-10.143-0.545-10.088-7.106
		c0.078-9.455,11.438-15.34,21.689-6.316c18.504,16.291-3.486,52.061-30.055,36.188C41.404,237.76,34.971,220.849,35.984,208.107z
		 M88.119,249.816c4.045-2.908,7.459-6.997,9.201-11.654c6.422,1.046,9.436,7.311,9.242,13.494
		c0.195,6.183-2.82,12.448-9.242,13.495c-1.742-4.658-5.156-8.748-9.201-11.654c0.459-0.406,0.666-0.715,0.668-1.84
		C88.785,250.531,88.576,250.368,88.119,249.816z M98.547,277.417c13.498,6.991,11.416,45.938-6.748,44.161
		c-5.727-0.559-9.234-6.271-7.973-14.106C85.471,297.251,100.488,289.119,98.547,277.417z M98.547,225.895
		c1.941-11.702-13.076-19.834-14.721-30.055c-1.262-7.835,2.246-13.547,7.973-14.106
		C109.963,179.957,112.045,218.904,98.547,225.895z M51.318,259.629c26.57-15.873,48.559,19.898,30.055,36.189
		c-10.252,9.023-21.611,3.139-21.689-6.316c-0.055-6.561,7.266-9.002,10.09-7.105c0.98-0.496,1.668-1.379,1.785-3.139
		c0.205-3.066-2.902-6.705-6.133-7.361c-7.646-1.553-13.363,5.094-15.334,10.428c-3.504,9.48-1.309,16.715,3.066,24.533
		c12.924,23.092,46.783,31.709,75.443,20.242c17.213-6.889,34.59-20.984,49.068-32.508c1.436-1.143,3.107-2.516,4.916-4.051
		l9.461,9.461c-3.484,3.268-6.363,5.875-8.244,7.471c-21.1,17.893-43.643,33.214-71.148,38.641
		c-22.504,4.439-44.969-3.5-57.656-15.334c-8.373-7.813-17.711-19.176-19.014-35.574C34.971,282.463,41.404,265.551,51.318,259.629z
		 M44.564,466.323c-0.607-1.841-1.818-3.567-2.801-4.552c-0.984-0.982-2.711-2.191-4.553-2.801
		c6.311-37.852,24.371-62.096,69.352-61.999C106.66,441.953,82.416,460.014,44.564,466.323z M129.209,459.578
		c-15.688-12.368-13.246-44.607-15.289-69.964c-25.355-2.04-57.596,0.399-69.963-15.286c-6.525-8.277-5.869-27.66,4.908-33.121
		c2.775,4.158,5.32,6.861,8.586,9.813c24.793,22.396,62.615,16.143,99.045-3.98c-20.123,36.43-26.377,74.252-3.98,99.044
		c2.949,3.267,5.654,5.812,9.814,8.587C156.867,465.446,137.484,466.104,129.209,459.578z M243.906,452.217
		c-5.922,9.913-22.834,16.348-35.574,15.334c-16.4-1.303-27.764-10.641-35.576-19.014c-11.834-12.686-19.773-35.152-15.334-57.656
		c5.426-27.507,20.748-50.049,38.643-71.148c1.594-1.881,4.201-4.76,7.469-8.243l9.461,9.46c-1.535,1.81-2.908,3.48-4.051,4.916
		c-11.523,14.48-25.621,31.854-32.508,49.068c-11.465,28.66-2.85,62.52,20.242,75.443c7.818,4.377,15.053,6.57,24.533,3.066
		c5.332-1.971,11.98-7.688,10.428-15.334c-0.656-3.23-4.295-6.34-7.361-6.134c-1.76,0.118-2.643,0.808-3.139,1.786
		c1.896,2.824-0.545,10.145-7.105,10.09c-9.455-0.078-15.34-11.438-6.314-21.689C224.008,403.658,259.779,425.648,243.906,452.217z
		 M251.879,414.748c-0.596,0.24-1.205,0.467-1.84,0.667c-2.906-4.044-6.996-7.458-11.654-9.2c1.047-6.422,7.313-9.436,13.494-9.243
		c6.184-0.192,12.449,2.821,13.494,9.243c-4.656,1.742-8.748,5.156-11.654,9.201C253.086,415.215,252.475,414.988,251.879,414.748z
		 M295.428,467.551c-12.742,1.014-29.652-5.42-35.574-15.334c-15.873-26.568,19.898-48.559,36.188-30.055
		c9.025,10.252,3.139,21.611-6.316,21.689c-6.561,0.055-9-7.266-7.105-10.09c-0.496-0.979-1.377-1.668-3.139-1.785
		c-3.066-0.207-6.703,2.902-7.361,6.133c-1.553,7.646,5.096,13.363,10.428,15.334c9.48,3.504,16.715,1.311,24.535-3.066
		c23.092-12.924,31.707-46.783,20.24-75.443c-6.887-17.215-20.982-34.588-32.508-49.068c-1.143-1.436-2.514-3.105-4.051-4.916
		l9.461-9.461c3.268,3.483,5.875,6.363,7.471,8.244c17.895,21.1,33.215,43.642,38.643,71.148c4.438,22.504-3.5,44.971-15.336,57.656
		C323.189,456.91,311.828,466.248,295.428,467.551z M374.551,459.578c-8.277,6.525-27.66,5.869-33.121-4.908
		c4.16-2.775,6.863-5.32,9.814-8.587c22.395-24.792,16.141-62.614-3.982-99.044c36.43,20.123,74.252,26.377,99.045,3.98
		c3.266-2.951,5.813-5.653,8.588-9.813c10.775,5.461,11.432,24.844,4.906,33.121c-12.367,15.686-44.607,13.246-69.963,15.287
		C387.797,414.971,390.236,447.21,374.551,459.578z M461.996,461.771c-0.984,0.984-2.193,2.711-2.803,4.552
		c-37.85-6.31-62.094-24.37-61.998-69.351c44.982-0.098,63.041,24.146,69.352,61.998
		C464.705,459.58,462.979,460.789,461.996,461.771z M467.775,295.205c-1.305,16.398-10.641,27.762-19.016,35.574
		c-12.686,11.834-35.152,19.773-57.654,15.334c-27.508-5.427-50.049-20.747-71.15-38.641c-1.881-1.596-4.76-4.203-8.242-7.473
		l9.459-9.459c1.811,1.535,3.48,2.907,4.918,4.051c14.479,11.523,31.854,25.619,49.068,32.508
		c28.66,11.467,62.52,2.85,75.441-20.242c4.377-7.818,6.57-15.053,3.068-24.533c-1.971-5.334-7.689-11.98-15.334-10.428
		c-3.232,0.656-6.34,4.295-6.135,7.361c0.119,1.76,0.807,2.643,1.787,3.138c2.822-1.896,10.143,0.546,10.088,7.105
		c-0.078,9.456-11.438,15.341-21.688,6.317c-18.504-16.291,3.484-52.062,30.053-36.189
		C462.354,265.551,468.787,282.463,467.775,295.205z M415.639,253.496c-4.045,2.906-7.457,6.996-9.199,11.654
		c-6.424-1.047-9.438-7.312-9.244-13.495c-0.193-6.182,2.82-12.448,9.244-13.494c1.742,4.657,5.154,8.747,9.199,11.654
		c-0.457,0.552-0.666,0.715-0.666,1.84S415.182,253.089,415.639,253.496z M419.934,307.473c1.26,7.833-2.246,13.547-7.975,14.105
		c-18.164,1.777-20.244-37.17-6.746-44.161C403.271,289.119,418.287,297.252,419.934,307.473z M405.213,225.895
		c-13.5-6.991-11.418-45.938,6.746-44.162c5.729,0.56,9.234,6.271,7.973,14.106C418.287,206.061,403.271,214.193,405.213,225.895z
		 M452.439,243.682c-26.568,15.873-48.557-19.899-30.053-36.189c10.25-9.024,21.611-3.138,21.688,6.317
		c0.055,6.561-7.266,9.001-10.088,7.105c-0.98,0.496-1.668,1.378-1.787,3.138c-0.205,3.067,2.902,6.705,6.135,7.361
		c7.645,1.554,13.363-5.094,15.334-10.427c3.502-9.48,1.309-16.715-3.068-24.534c-12.922-23.092-46.781-31.708-75.441-20.241
		c-17.215,6.887-34.59,20.984-49.068,32.508c-1.438,1.143-3.107,2.515-4.918,4.051l-9.459-9.46c3.482-3.269,6.361-5.877,8.242-7.472
		c21.102-17.894,43.643-33.215,71.15-38.641c22.502-4.439,44.969,3.499,57.654,15.334c8.375,7.812,17.711,19.175,19.016,35.574
		C468.787,220.849,462.354,237.76,452.439,243.682z"/>
</g>
</svg>
