<?xml version="1.0" encoding="utf-8"?>
<!-- Generator: Adobe Illustrator 14.0.0, SVG Export Plug-In . SVG Version: 6.00 Build 43363)  -->
<!DOCTYPE svg PUBLIC "-//W3C//DTD SVG 1.1//EN" "http://www.w3.org/Graphics/SVG/1.1/DTD/svg11.dtd">
<svg version="1.1" id="Layer_1" xmlns="http://www.w3.org/2000/svg" xmlns:xlink="http://www.w3.org/1999/xlink" x="0px" y="0px"
	 width="504px" height="504px" viewBox="0 0 504 504" enable-background="new 0 0 504 504" xml:space="preserve">
<path d="M6.813,7.238V497.39h490.133V7.238H6.813z M459.279,125.002c4.293,4.294,4.293,11.255,0,15.549
	c-4.295,4.293-11.256,4.293-15.549,0c-4.293-4.294-4.293-11.255,0-15.549C448.023,120.709,454.984,120.709,459.279,125.002z
	 M446.852,57.333c-4.75,31.595-10.609,56.77-33.533,72.336c-18.223,12.373-53.088,25.548-71.379,32.575
	c7.027-18.291,20.203-53.155,32.576-71.378C390.082,67.942,415.256,62.082,446.852,57.333z M238.467,355.796
	c-1.449-11.716,8.014-19.38,13.412-27.095c5.398,7.715,14.863,15.379,13.414,27.095c-1.197,9.68-9.129,15.457-13.412,22.992v0.002
	h-0.002l0,0l0,0v-0.002C247.596,371.253,239.664,365.476,238.467,355.796z M251.881,125.837v0.002
	c4.283,7.536,12.215,13.313,13.412,22.992c1.449,11.713-8.016,19.373-13.414,27.085c-5.398-7.712-14.861-15.372-13.412-27.085
	c1.197-9.68,9.129-15.456,13.412-22.992v-0.001c0,0,0,0,0-0.001c0,0.001,0,0.001,0,0.001S251.881,125.838,251.881,125.837z
	 M321.422,295.884c-3.145,3.765-6.494,7.476-9.482,11.035c-19.07-16.078-28.838-27.09-28.924-34.494
	c-0.049-4.287,7.088-18.117,17.246-17.246c9.385,0.804,6.508,18.134,0.959,23.474C306.721,284.97,316.189,292.365,321.422,295.884z
	 M300.262,249.431c-10.158,0.87-17.295-12.959-17.246-17.246c0.086-7.405,9.854-18.416,28.924-34.494
	c2.988,3.56,6.338,7.271,9.482,11.034c-5.232,3.52-14.701,10.915-20.201,17.232C306.77,231.297,309.646,248.627,300.262,249.431z
	 M315.113,181.407c-3.947-3.209-7.139-6.174-11.182-9.618c9.656-12.418,18.092-49.617,1.121-60.803
	c6.408,10.077-4.447,16.998-10.539,19.162c-9.586,3.406-24.201-3.445-24.91-16.767c-0.775-14.579,13.598-25.527,27.307-26.348
	c13.42-0.803,24.809,5.846,30.18,14.851C341.537,126.103,330.354,162.205,315.113,181.407z M278.227,202.964
	c6.318-5.5,13.713-14.969,17.232-20.201c3.764,3.144,7.475,6.493,11.035,9.481c-16.078,19.07-27.09,28.839-34.494,28.923
	c-4.287,0.05-18.117-7.086-17.246-17.245C255.557,194.538,272.887,197.414,278.227,202.964z M269.125,266.197
	c-2.396,0.017-3.936-1.076-5.578-2.225c1.148,1.642,2.242,3.182,2.225,5.577c-0.041,5.997-6.924,8.591-13.893,8.409
	c-6.967,0.182-13.85-2.412-13.893-8.409c-0.016-2.396,1.076-3.936,2.225-5.577c-1.641,1.148-3.182,2.241-5.576,2.225
	c-5.998-0.042-8.592-6.925-8.41-13.893c-0.182-6.968,2.412-13.852,8.41-13.893c2.395-0.017,3.936,1.075,5.576,2.225
	c-1.148-1.642-2.24-3.182-2.225-5.577c0.043-5.998,6.926-8.591,13.893-8.409c6.969-0.182,13.852,2.411,13.893,8.409
	c0.018,2.396-1.076,3.936-2.225,5.577c1.643-1.149,3.182-2.241,5.578-2.225c5.998,0.041,8.59,6.925,8.408,13.893
	C277.715,259.272,275.123,266.155,269.125,266.197z M249.006,203.922c0.871,10.159-12.959,17.295-17.246,17.245
	c-7.404-0.084-18.416-9.853-34.494-28.923c3.559-2.988,7.27-6.338,11.035-9.481c3.518,5.232,10.914,14.701,17.23,20.201
	C230.871,197.414,248.201,194.538,249.006,203.922z M203.496,255.179c10.16-0.871,17.295,12.959,17.246,17.246
	c-0.084,7.404-9.854,18.416-28.924,34.494c-2.988-3.56-6.338-7.271-9.48-11.035c5.232-3.519,14.701-10.914,20.201-17.231
	C196.988,273.313,194.113,255.982,203.496,255.179z M203.496,249.431c-9.383-0.804-6.508-18.134-0.957-23.474
	c-5.5-6.317-14.969-13.713-20.201-17.232c3.143-3.764,6.492-7.475,9.48-11.034c19.07,16.078,28.84,27.089,28.924,34.494
	C220.791,236.472,213.656,250.301,203.496,249.431z M234.154,113.382c-0.709,13.321-15.324,20.173-24.91,16.767
	c-6.092-2.164-16.947-9.085-10.539-19.162c-16.969,11.186-8.535,48.385,1.123,60.803c-4.045,3.444-7.234,6.409-11.184,9.618
	c-15.24-19.202-26.424-55.305-11.975-79.522c5.371-9.005,16.758-15.653,30.18-14.851C220.559,87.854,234.93,98.803,234.154,113.382z
	 M180.982,189.07c-3.209,3.948-6.174,7.139-9.619,11.182c-12.418-9.656-49.617-18.091-60.803-1.121
	c10.078-6.408,16.998,4.447,19.162,10.539c3.406,9.586-3.443,24.201-16.766,24.91c-14.578,0.775-25.527-13.598-26.348-27.306
	c-0.803-13.421,5.846-24.809,14.85-30.181C125.678,162.646,161.779,173.83,180.982,189.07z M175.492,252.305
	c-7.713,5.398-15.373,14.862-27.086,13.413c-9.682-1.197-15.457-9.13-22.994-13.413c7.537-4.283,13.313-12.216,22.994-13.413
	C160.119,237.442,167.779,246.906,175.492,252.305z M86.609,297.335c0.82-13.709,11.77-28.081,26.348-27.306
	c13.322,0.709,20.172,15.324,16.766,24.91c-2.164,6.092-9.084,16.947-19.162,10.539c11.186,16.974,48.385,8.535,60.803-1.121
	c3.445,4.043,6.41,7.232,9.619,11.184c-19.203,15.248-55.305,26.438-79.523,11.98C92.455,322.147,85.807,310.756,86.609,297.335z
	 M188.645,323.207c3.949,3.21,7.139,6.177,11.184,9.623c-9.658,12.426-18.092,49.626-1.123,60.812
	c-6.408-10.078,4.447-16.998,10.539-19.162c9.586-3.406,24.201,3.443,24.91,16.766c0.775,14.578-13.596,25.527-27.305,26.348
	c-13.422,0.803-24.809-5.846-30.18-14.85C162.221,378.524,173.404,342.42,188.645,323.207z M225.531,301.646
	c-6.316,5.499-13.713,14.97-17.23,20.205c-3.766-3.145-7.477-6.497-11.035-9.485c16.078-19.07,27.09-28.839,34.494-28.924
	c4.287-0.049,18.117,7.086,17.246,17.246C248.201,310.071,230.871,307.195,225.531,301.646z M254.754,300.688
	c-0.871-10.16,12.959-17.295,17.246-17.246c7.404,0.085,18.416,9.854,34.494,28.924c-3.561,2.988-7.271,6.341-11.035,9.485
	c-3.52-5.235-10.914-14.706-17.232-20.205C272.887,307.195,255.557,310.071,254.754,300.688z M269.604,391.245
	c0.709-13.322,15.324-20.172,24.91-16.766c6.092,2.164,16.947,9.084,10.539,19.162c16.971-11.186,8.535-48.386-1.121-60.812
	c4.043-3.446,7.234-6.413,11.182-9.623c15.24,19.213,26.424,55.317,11.977,79.536c-5.371,9.004-16.76,15.652-30.18,14.85
	C283.201,416.772,268.828,405.823,269.604,391.245z M322.777,315.541c3.209-3.951,6.172-7.141,9.617-11.184
	c12.418,9.656,49.617,18.095,60.803,1.121c-10.076,6.408-16.998-4.447-19.162-10.539c-3.406-9.586,3.445-24.201,16.768-24.91
	c14.578-0.775,25.527,13.597,26.348,27.306c0.803,13.421-5.846,24.813-14.852,30.187
	C378.082,341.979,341.979,330.789,322.777,315.541z M328.268,252.305c7.713-5.398,15.373-14.862,27.086-13.413
	c9.68,1.197,15.457,9.13,22.994,13.413c-7.537,4.283-13.314,12.216-22.994,13.413C343.641,267.167,335.98,257.703,328.268,252.305z
	 M417.15,207.274c-0.82,13.708-11.77,28.081-26.348,27.306c-13.322-0.709-20.174-15.324-16.768-24.91
	c2.164-6.092,9.086-16.947,19.162-10.539c-11.186-16.97-48.385-8.535-60.803,1.121c-3.445-4.043-6.408-7.233-9.617-11.182
	c19.201-15.24,55.305-26.424,79.521-11.977C411.305,182.466,417.953,193.854,417.15,207.274z M363.633,44.905
	c4.295-4.294,11.256-4.293,15.549,0c4.293,4.294,4.293,11.255,0,15.548c-4.293,4.294-11.254,4.294-15.549,0
	C359.34,56.16,359.34,49.199,363.633,44.905z M251.879,36.307C298.99,36.08,346.143,54.37,352,94.22
	c-5.338,0.54-7.342,0.571-12.455,0.958c-1.439-8.925-4.848-16.086-10.061-21.557C314.42,57.813,282.723,48.8,251.879,48.928
	c-30.842-0.128-62.541,8.885-77.605,24.693c-5.213,5.471-8.619,12.632-10.061,21.557c-5.113-0.387-7.115-0.418-12.455-0.958
	C157.615,54.37,204.77,36.08,251.879,36.307z M124.578,44.905c4.293-4.293,11.254-4.294,15.547,0c4.295,4.294,4.293,11.255,0,15.548
	c-4.293,4.294-11.254,4.294-15.547,0C120.283,56.16,120.283,49.199,124.578,44.905z M129.244,90.866
	c12.373,18.223,25.547,53.087,32.574,71.378c-18.291-7.027-53.154-20.202-71.377-32.575c-22.924-15.566-28.785-40.741-33.533-72.336
	C88.504,62.082,113.678,67.942,129.244,90.866z M44.48,125.002c4.293-4.293,11.254-4.293,15.549,0
	c4.293,4.294,4.293,11.255,0,15.549c-4.295,4.293-11.256,4.293-15.549,0C40.188,136.257,40.188,129.296,44.48,125.002z
	 M93.795,152.184c0.539,5.339,0.572,7.342,0.957,12.455c-8.924,1.44-16.086,4.847-21.557,10.061
	c-15.807,15.064-24.82,46.763-24.693,77.605c-0.127,30.843,8.887,62.542,24.693,77.614c5.471,5.216,12.633,8.624,21.557,10.065
	c-0.385,5.116-0.418,7.119-0.957,12.46c-39.85-5.858-58.141-53.029-57.914-100.14C35.654,205.194,53.945,158.041,93.795,152.184z
	 M44.48,379.624c-4.293-4.293-4.293-11.254,0-15.547c4.293-4.295,11.254-4.293,15.549,0c4.293,4.293,4.293,11.254,0,15.547
	C55.734,383.919,48.773,383.919,44.48,379.624z M56.908,447.294c4.748-31.596,10.609-56.77,33.533-72.336
	c18.223-12.373,53.086-25.547,71.377-32.577c-7.027,18.294-20.201,53.157-32.574,71.38
	C113.678,436.685,88.504,442.546,56.908,447.294z M140.125,459.722c-4.293,4.293-11.254,4.293-15.547,0
	c-4.295-4.293-4.295-11.254,0-15.549c4.293-4.293,11.254-4.293,15.547,0C144.418,448.468,144.42,455.429,140.125,459.722z
	 M251.879,468.321c-47.109,0.227-94.264-18.064-100.121-57.914c5.34-0.539,7.342-0.572,12.455-0.959
	c1.441,8.926,4.848,16.088,10.061,21.559c15.064,15.807,46.764,24.82,77.605,24.691c30.844,0.129,62.541-8.885,77.605-24.691
	c5.213-5.471,8.621-12.633,10.061-21.559c5.113,0.387,7.117,0.42,12.455,0.959C346.143,450.257,298.99,468.548,251.879,468.321z
	 M379.182,459.722c-4.293,4.293-11.254,4.293-15.549,0c-4.293-4.293-4.293-11.254,0-15.549c4.295-4.293,11.256-4.293,15.549,0
	C383.475,448.468,383.475,455.429,379.182,459.722z M374.516,413.761c-12.373-18.223-25.549-53.086-32.576-71.38
	c18.291,7.03,53.156,20.204,71.379,32.577c22.924,15.566,28.783,40.74,33.533,72.336
	C415.256,442.546,390.082,436.685,374.516,413.761z M459.279,379.624c-4.295,4.295-11.256,4.295-15.549,0
	c-4.293-4.293-4.293-11.254,0-15.547s11.254-4.295,15.549,0C463.572,368.37,463.572,375.331,459.279,379.624z M409.965,352.444
	c-0.541-5.341-0.572-7.344-0.959-12.46c8.926-1.441,16.086-4.85,21.557-10.065c15.809-15.072,24.822-46.771,24.693-77.614
	c0.129-30.843-8.885-62.541-24.693-77.605c-5.471-5.214-12.631-8.62-21.557-10.061c0.387-5.113,0.418-7.116,0.959-12.455
	c39.85,5.857,58.139,53.011,57.912,100.121C468.104,299.415,449.814,346.586,409.965,352.444z"/>
</svg>
