<?xml version="1.0" encoding="utf-8"?>
<!-- Generator: Adobe Illustrator 14.0.0, SVG Export Plug-In . SVG Version: 6.00 Build 43363)  -->
<!DOCTYPE svg PUBLIC "-//W3C//DTD SVG 1.1//EN" "http://www.w3.org/Graphics/SVG/1.1/DTD/svg11.dtd">
<svg version="1.1" id="Layer_1" xmlns="http://www.w3.org/2000/svg" xmlns:xlink="http://www.w3.org/1999/xlink" x="0px" y="0px"
	 width="504px" height="504px" viewBox="0 0 504 504" enable-background="new 0 0 504 504" xml:space="preserve">
<g>
	<path d="M7.315,6.589v490.133h490.133V6.589H7.315z M312.283,46.639c40.574,0,74.469,19.58,77.806,54.424
		c11.464-13.361,17.667-27.687,17.667-42.96c0-6.205-1.438-12.408-3.82-19.57c12.41,1.429,19.09,12.886,21.481,26.248
		c7.159-14.319,23.861-30.545,40.565-27.208c3.821,17.184-12.402,33.886-26.724,41.049c13.366,2.383,24.819,9.08,25.778,21.484
		c-6.688-2.384-12.892-3.822-19.579-3.822c-14.791,0-29.112,6.205-42.481,17.184c34.375,3.819,53.944,37.704,53.944,77.81
		c0,25.304,4.774,34.843,9.545,45.821c-19.085-3.814-41.049-23.86-41.049-42.002c0-5.259,0.476-10.024,2.384-14.798
		c-7.638,2.858-16.708,5.254-25.295,5.254c-10.504,0-22.916-13.842-22.916-24.345c0-16.713,16.708-25.779,27.687-24.34
		c-5.25,3.34-8.117,9.545-8.117,15.265c0,7.162,7.159,12.421,16.713,12.421c10.503,0,16.224-9.08,16.224-17.662
		c0-10.983-13.361-22.921-29.119-22.921c-12.888,0-23.866,6.679-38.188,15.279c8.598-14.325,14.801-25.782,14.801-38.187
		c0-16.237-11.458-29.124-22.437-29.124c-8.587,0-17.657,5.725-17.657,16.228c0,9.556,5.25,16.237,12.412,16.237
		c5.724,0,11.928-2.396,15.274-7.642c1.428,10.979-7.638,27.208-24.825,27.208c-10.5,0-23.865-11.925-23.865-22.429
		c0-8.596,2.392-17.661,5.25-25.778c-4.775,2.379-10.021,2.858-14.8,2.858c-18.142,0-38.183-22.427-42.003-41.527
		C277.918,42.339,287.465,46.639,312.283,46.639z M271.241,86.263c0,7.642-4.784,13.843-6.685,20.52
		c6.203-4.775,11.924-10.021,20.999-10.021c16.229,0,28.166,12.408,28.166,26.729c0,10.035-10.982,21.482-22.921,21.482
		c-3.815,0-7.162-0.95-9.541-2.387c4.78-3.337,9.066-6.679,9.066-13.358c0-5.258-6.208-9.079-12.887-9.079
		c-7.163,0-14.32,5.733-14.32,16.239c0,14.783,17.182,21.947,29.6,21.947c12.882,0,29.114-13.362,30.068-26.249
		c9.551,4.781,19.57,6.685,29.6,5.245c-7.641,6.691-17.191,10.039-24.825,6.691c-2.387,10.505-18.619,23.867-37.235,23.867
		c-13.366,0-31.028-10.5-37.707-20.999c-7.162,10.499-24.824,20.999-37.711,20.999c-17.662,0-36.282-13.362-37.231-23.867
		c-8.113,3.348-17.663,0-25.296-6.691c10.021,1.439,20.046-0.464,29.586-5.245c1.438,12.887,17.192,26.249,30.554,26.249
		c12.412,0,29.596-7.164,29.596-21.947c0-10.506-7.163-16.239-14.801-16.239c-6.683,0-12.407,3.821-12.407,9.079
		c0,6.68,3.82,10.021,9.066,13.358c-2.862,1.437-6.205,2.387-9.545,2.387c-12.409,0-23.387-11.447-23.387-21.482
		c0-14.32,12.408-26.729,28.166-26.729c9.064,0,15.264,5.245,21.003,10.021c-1.918-6.677-6.208-12.878-6.208-20.52
		c0-17.661,12.407-33.886,18.615-50.607C258.344,52.377,271.241,68.602,271.241,86.263z M287.943,301.068
		c-4.775,0-7.643,3.342-7.643,6.68c0,5.246,3.338,7.162,7.643,8.586c-3.347,2.396-6.208,3.342-9.545,3.342
		c-6.684,0-11.459-7.623-11.459-13.367c0-6.678,6.679-12.396,12.887-13.836c-10.979-5.725-20.528-20.049-19.09-32.932
		c12.882-1.434,27.207,8.107,32.453,19.086c1.433-5.725,7.641-12.402,14.324-12.402c5.25,0,13.37,4.281,13.37,10.979
		c0,3.342-0.963,6.684-3.341,9.545c-1.438-3.82-3.821-7.641-8.601-7.641c-3.342,0-6.679,2.861-6.679,7.641
		c0,5.246,3.82,10.5,9.54,10.5c6.21,0,10.983-1.918,15.758-6.684c0.481,7.162-1.916,15.27-6.678,19.092
		c13.842,8.596,26.245,23.396,25.766,35.803c-12.403,0.479-27.207-11.928-35.8-25.783c-3.807,4.775-11.928,7.162-19.09,6.693
		c4.3-4.295,6.683-9.557,6.683-15.275C298.442,304.891,293.189,301.068,287.943,301.068z M216.816,301.068
		c-4.766,0-10.025,3.822-10.025,10.025c0,5.719,1.913,10.98,6.679,15.275c-7.157,0.469-15.745-1.918-19.086-6.693
		c-8.596,13.855-23.87,26.262-35.799,25.783c-0.479-12.406,11.458-27.207,25.774-35.803c-5.255-3.822-7.153-11.93-6.683-19.092
		c4.29,4.766,9.55,6.684,15.274,6.684c5.729,0,10.019-5.254,10.019-10.5c0-4.779-3.811-7.641-6.682-7.641
		c-5.245,0-7.638,3.82-8.582,7.641c-2.397-2.861-3.347-6.203-3.347-9.545c0-6.697,7.638-10.979,12.887-10.979
		c7.162,0,12.888,6.678,14.325,12.402c5.245-10.979,20.045-20.52,32.933-19.086c0.953,12.883-8.592,27.207-19.092,32.932
		c5.721,1.439,12.403,7.158,12.403,13.836c0,5.744-4.291,13.367-11.449,13.367c-2.867,0-6.208-0.945-9.55-3.342
		c4.296-1.424,8.116-3.34,8.116-8.586C224.933,304.41,222.07,301.068,216.816,301.068z M216.816,201.776
		c5.254,0,8.116-3.337,8.116-6.68c0-5.259-3.82-7.16-8.116-8.595c3.342-2.388,6.683-3.345,9.55-3.345
		c7.158,0,11.449,7.641,11.449,13.375c0,6.682-6.683,12.886-12.403,13.844c10.5,5.726,20.045,20.046,19.092,32.928
		c-12.888,1.439-27.688-8.103-32.933-19.085c-1.438,5.725-7.163,12.88-14.325,12.88c-5.249,0-12.887-4.773-12.887-11.457
		c0-3.337,0.949-6.683,3.347-9.54c0.944,3.816,3.337,7.637,8.582,7.637c2.871,0,6.682-2.863,6.682-7.637
		c0-5.26-4.29-10.505-10.019-10.505c-5.725,0-10.984,2.384-15.274,6.683c-0.471-7.161,1.428-15.277,6.683-19.085
		c-14.316-8.602-26.253-23.399-25.774-35.804c11.929-0.479,27.203,11.924,35.799,25.767c3.341-4.767,11.929-7.16,19.086-6.68
		c-4.766,4.3-6.679,9.556-6.679,15.279C206.791,197.96,212.051,201.776,216.816,201.776z M242.595,212.759
		c3.816-0.959,7.636-3.342,10.024-6.683c1.907,3.341,5.725,5.724,10.021,6.683c-4.296,5.721-7.161,11.459-10.021,18.619
		C249.273,224.218,246.411,218.48,242.595,212.759z M262.64,290.086c-4.296,0.959-8.113,3.346-10.021,6.684
		c-2.389-3.338-6.208-5.725-10.024-6.684c3.816-5.721,6.679-11.459,10.024-18.619C255.479,278.627,258.344,284.365,262.64,290.086z
		 M252.619,199.397c-5.245-10.024-14.325-18.141-23.386-22.92c8.582-3.342,18.141-9.065,23.386-14.799
		c4.775,5.733,14.32,11.457,22.907,14.799C266.457,181.256,257.395,189.373,252.619,199.397z M232.57,251.424
		c-7.158,3.337-12.888,5.726-18.621,10.021c-0.95-4.295-3.341-7.643-6.678-10.021c3.337-2.383,5.728-5.725,6.678-10.023
		C219.683,245.7,225.412,248.083,232.57,251.424z M177.677,228.039c4.771,9.541,12.411,18.606,22.911,23.386
		c-10.5,5.246-19.571,15.279-22.911,23.386c-3.342-8.586-9.07-18.141-14.796-23.386
		C168.606,246.645,174.335,237.098,177.677,228.039z M252.619,303.451c4.775,10.5,13.838,18.143,22.907,22.918
		c-8.587,3.346-18.132,9.066-22.907,14.789c-5.245-5.723-14.804-11.443-23.386-14.789
		C238.294,321.594,247.374,313.951,252.619,303.451z M272.669,251.424c7.157-3.342,12.407-5.725,18.61-10.023
		c0.96,4.299,2.864,7.641,6.685,10.023c-3.82,2.378-5.725,5.726-6.685,10.021C285.076,257.15,279.826,254.762,272.669,251.424z
		 M327.562,274.811c-5.253-9.064-12.891-18.141-23.391-23.386c10.5-4.779,18.138-13.845,23.391-23.386
		c3.343,9.06,9.063,18.606,14.325,23.386C336.624,256.67,330.904,266.225,327.562,274.811z M327.562,212.279
		c-4.774-4.299-9.548-6.683-15.758-6.683c-5.72,0-9.54,5.245-9.54,10.505c0,4.773,3.337,7.637,6.679,7.637
		c4.779,0,7.162-3.82,8.601-7.637c2.378,2.857,3.341,6.203,3.341,9.54c0,6.684-8.12,11.457-13.37,11.457
		c-6.684,0-12.892-7.155-14.324-12.88c-5.246,10.982-19.571,20.524-32.453,19.085c-1.438-12.882,8.111-27.202,19.09-32.928
		c-6.208-0.958-12.887-7.162-12.887-13.844c0-5.734,4.775-13.375,11.459-13.375c3.337,0,6.198,0.957,9.545,3.345
		c-4.305,1.435-7.643,3.336-7.643,8.595c0,3.343,2.867,6.68,7.643,6.68c5.246,0,10.499-3.815,10.499-10.02
		c0-5.724-2.383-10.979-6.683-15.279c7.162-0.48,15.283,1.913,19.09,6.68c8.593-13.843,23.396-26.245,35.8-25.767
		c0.479,12.404-11.924,27.202-25.766,35.804C325.646,197.001,328.043,205.118,327.562,212.279z M38.769,37.573
		c16.703-3.337,33.896,12.889,41.053,27.208c2.392-13.362,9.071-24.819,21.474-26.248c-2.378,7.162-3.816,13.365-3.816,19.57
		c0,15.273,5.733,29.599,17.188,42.96c3.815-34.844,37.236-54.424,77.805-54.424c23.871,0,34.371-4.3,45.345-9.545
		c-3.343,19.101-23.386,41.527-41.527,41.527c-5.245,0-10.021-0.479-15.271-2.858c3.343,8.117,5.729,17.183,5.729,25.778
		c0,10.504-13.84,22.429-24.344,22.429c-16.709,0-25.778-16.229-24.345-27.208c2.862,5.245,9.545,7.642,14.799,7.642
		c7.157,0,12.886-6.682,12.886-16.237c0-10.503-9.069-16.228-17.66-16.228c-10.983,0-22.912,12.887-22.912,29.124
		c0,12.404,6.209,23.861,14.79,38.187c-13.836-8.601-25.294-15.279-38.187-15.279c-15.748,0-29.109,11.938-29.109,22.921
		c0,8.582,6.207,17.662,16.712,17.662c9.541,0,16.22-5.259,16.22-12.421c0-5.72-2.858-11.925-7.638-15.265
		c10.979-1.439,27.212,7.627,27.212,24.34c0,10.503-12.413,24.345-22.912,24.345c-8.596,0-17.666-2.396-25.304-5.254
		c2.393,4.773,2.867,9.539,2.867,14.798c0,18.142-22.432,38.188-41.532,42.002c5.259-10.979,9.55-20.518,9.55-45.821
		c0-40.105,19.575-73.99,53.935-77.81c-12.881-10.979-27.682-17.184-42.48-17.184c-6.199,0-12.888,1.438-19.566,3.822
		c1.43-12.404,12.888-19.102,25.774-21.484C51.66,71.458,34.947,54.756,38.769,37.573z M87.458,232.804
		c7.158,0,13.837,4.775,20.521,6.205c-5.241-5.726-10.021-11.449-10.021-20.529c0-16.224,12.417-28.643,26.257-28.643
		c10.506,0,21.953,10.979,21.953,23.4c0,3.822-0.949,6.68-2.387,9.541c-3.821-4.779-6.683-9.065-13.84-9.065
		c-4.771,0-9.067,5.726-9.067,12.888c0,7.161,6.203,14.32,16.708,14.32c14.32,0,21.478-17.184,21.478-29.6
		c0-12.883-12.892-29.106-26.257-30.545c5.255-9.546,7.157-19.569,5.733-29.125c6.683,7.643,10.024,17.188,6.683,24.825
		c10.499,2.392,23.388,18.619,23.388,37.236c0,13.366-10.021,31.029-20.524,37.711c10.503,6.683,20.524,24.345,20.524,37.703
		c0,17.662-12.889,35.803-23.388,37.242c3.342,7.627,0,17.184-6.683,25.289c1.424-10.021-0.479-20.045-5.733-29.584
		c13.365-1.439,26.257-17.664,26.257-30.559c0-12.408-7.157-29.592-21.478-29.592c-10.505,0-16.708,7.164-16.708,14.324
		s4.296,12.879,9.067,12.879c7.157,0,10.019-3.816,13.84-9.061c1.438,2.861,2.387,5.725,2.387,9.539
		c0,12.422-11.447,23.389-21.953,23.389c-13.84,0-26.257-12.404-26.257-28.164c0-9.061,4.779-15.264,10.021-21.002
		c-6.684,1.918-13.362,6.217-20.521,6.217c-17.666,0-33.886-12.895-51.072-18.621C53.572,245.7,69.792,232.804,87.458,232.804z
		 M192.471,456.203c-40.568,0-73.989-19.576-77.805-54.422c-11.454,13.367-17.188,27.688-17.188,42.965
		c0,6.203,1.438,12.889,3.816,19.566c-12.402-1.422-19.082-12.881-21.474-25.77c-7.157,13.846-24.35,30.07-41.053,26.73
		c-3.821-17.186,12.892-33.893,26.732-41.051c-12.887-2.393-24.345-9.074-25.774-21.482c6.679,2.385,13.367,3.82,19.566,3.82
		c14.799,0,29.6-6.217,42.48-17.184c-34.359-3.818-53.935-37.24-53.935-77.803c0-24.348-4.291-34.85-9.55-45.35
		c19.101,3.342,41.532,23.381,41.532,41.523c0,5.246-0.475,10.025-2.867,15.283c7.638-3.355,16.708-5.738,25.304-5.738
		c10.499,0,22.912,13.84,22.912,24.344c0,16.705-16.233,25.779-27.212,24.342c4.779-3.338,7.638-9.541,7.638-14.799
		c0-7.627-6.679-12.883-16.22-12.883c-10.505,0-16.712,9.078-16.712,17.662c0,10.979,13.361,22.916,29.109,22.916
		c12.893,0,24.351-6.68,38.187-15.273c-8.581,14.314-14.79,25.775-14.79,38.18c0,16.225,11.929,29.125,22.912,29.125
		c8.591,0,17.66-5.74,17.66-16.238c0-9.543-5.729-16.225-12.886-16.225c-5.254,0-11.937,2.381-14.799,7.639
		c-1.434-10.979,7.636-27.207,24.345-27.207c10.504,0,24.344,11.928,24.344,22.428c0,8.6-2.387,17.662-5.729,25.783
		c5.25-2.385,10.026-2.863,15.271-2.863c18.142,0,38.185,22.428,41.527,41.527C226.842,460.492,216.342,456.203,192.471,456.203z
		 M234.004,416.586c0-7.164,4.29-13.846,6.208-20.527c-5.739,4.766-11.938,10.023-21.003,10.023
		c-15.758,0-28.166-12.418-28.166-26.258c0-10.504,10.978-21.949,23.387-21.949c3.34,0,6.683,0.945,9.545,2.379
		c-5.246,3.348-9.066,6.684-9.066,13.365c0,5.256,5.725,9.08,12.407,9.08c7.638,0,14.801-5.736,14.801-16.24
		c0-14.322-17.184-21.959-29.596-21.959c-13.361,0-29.115,13.375-30.554,26.736c-9.54-5.258-19.564-7.156-29.586-5.736
		c7.633-6.68,17.183-10.021,25.296-6.68c0.949-10.506,19.569-23.865,37.231-23.865c12.887,0,30.549,10.504,37.711,21.004
		c6.679-10.5,24.341-21.004,37.707-21.004c18.616,0,34.849,13.359,37.235,23.865c7.634-3.342,17.185,0,24.825,6.68
		c-10.029-1.42-20.049,0.479-29.6,5.736c-0.954-13.361-17.187-26.736-30.068-26.736c-12.418,0-29.6,7.637-29.6,21.959
		c0,10.504,7.157,16.24,14.32,16.24c6.679,0,12.887-3.824,12.887-9.08c0-6.682-4.286-10.018-9.066-13.365
		c2.379-1.434,5.726-2.379,9.541-2.379c11.938,0,22.921,11.445,22.921,21.949c0,13.84-11.937,26.258-28.166,26.258
		c-9.075,0-14.796-5.258-20.999-10.023c1.9,6.682,6.685,13.363,6.685,20.527c0,17.662-12.897,33.885-18.622,51.07
		C246.411,450.471,234.004,434.248,234.004,416.586z M465.982,465.273c-16.704,3.34-33.406-12.885-40.565-26.73
		c-2.392,12.889-9.071,24.348-21.481,25.77c2.383-6.678,3.82-13.363,3.82-19.566c0-15.277-6.203-29.598-17.667-42.965
		c-3.337,34.846-37.231,54.422-77.806,54.422c-24.818,0-34.365,4.289-45.344,9.547c3.82-19.1,23.861-41.527,42.003-41.527
		c4.779,0,10.024,0.479,14.8,2.863c-2.858-8.121-5.25-17.184-5.25-25.783c0-10.5,13.365-22.428,23.865-22.428
		c17.188,0,26.253,16.229,24.825,27.207c-3.347-5.258-9.551-7.639-15.274-7.639c-7.162,0-12.412,6.682-12.412,16.225
		c0,10.498,9.07,16.238,17.657,16.238c10.979,0,22.437-12.9,22.437-29.125c0-12.404-6.203-23.865-14.801-38.18
		c14.321,8.594,25.3,15.273,38.188,15.273c15.758,0,29.119-11.938,29.119-22.916c0-8.584-5.721-17.662-16.224-17.662
		c-9.554,0-16.713,5.256-16.713,12.883c0,5.258,2.867,11.461,8.117,14.799c-10.979,1.438-27.687-7.637-27.687-24.342
		c0-10.504,12.412-24.344,22.916-24.344c8.587,0,17.657,2.383,25.295,5.738c-1.908-5.258-2.384-10.037-2.384-15.283
		c0-18.143,21.964-38.182,41.049-41.523c-4.771,10.5-9.545,21.002-9.545,45.35c0,40.563-19.569,73.984-53.944,77.803
		c13.369,10.967,27.69,17.184,42.481,17.184c6.688,0,12.891-1.436,19.579-3.82c-0.959,12.408-12.412,19.09-25.778,21.482
		C453.58,431.381,469.804,448.088,465.982,465.273z M417.301,270.045c-7.167,0-13.365-4.299-20.049-6.217
		c4.774,5.738,10.024,11.941,10.024,21.002c0,15.76-12.412,28.164-26.728,28.164c-10.499,0-21.482-10.967-21.482-23.389
		c0-3.814,0.479-6.678,1.908-9.539c3.814,5.244,7.157,9.061,13.836,9.061c4.779,0,9.079-5.719,9.079-12.879
		s-5.729-14.324-16.236-14.324c-14.796,0-21.95,17.184-21.95,29.592c0,12.895,13.363,29.119,26.25,30.559
		c-4.771,9.539-6.683,19.563-5.245,29.584c-7.163-8.105-10.029-17.662-7.163-25.289c-10.029-1.439-23.396-19.58-23.396-37.242
		c0-13.357,10.5-31.02,21.004-37.703c-10.504-6.682-21.004-24.345-21.004-37.711c0-18.617,13.366-34.845,23.396-37.236
		c-2.866-7.638,0-17.183,7.163-24.825c-1.438,9.556,0.475,19.579,5.245,29.125c-12.887,1.438-26.25,17.662-26.25,30.545
		c0,12.416,7.154,29.6,21.95,29.6c10.508,0,16.236-7.159,16.236-14.32c0-7.162-4.3-12.888-9.079-12.888
		c-6.679,0-10.021,4.286-13.836,9.065c-1.43-2.861-1.908-5.719-1.908-9.541c0-12.422,10.983-23.4,21.482-23.4
		c14.315,0,26.728,12.419,26.728,28.643c0,9.08-5.25,14.804-10.024,20.529c6.684-1.43,12.882-6.205,20.049-6.205
		c18.137,0,34.37,12.896,51.078,18.62C451.671,257.15,435.438,270.045,417.301,270.045z"/>
</g>
</svg>
