<?xml version="1.0" encoding="utf-8"?>
<!-- Generator: Adobe Illustrator 14.0.0, SVG Export Plug-In . SVG Version: 6.00 Build 43363)  -->
<!DOCTYPE svg PUBLIC "-//W3C//DTD SVG 1.1//EN" "http://www.w3.org/Graphics/SVG/1.1/DTD/svg11.dtd">
<svg version="1.1" id="Layer_1" xmlns="http://www.w3.org/2000/svg" xmlns:xlink="http://www.w3.org/1999/xlink" x="0px" y="0px"
	 width="504px" height="504px" viewBox="0 0 504 504" enable-background="new 0 0 504 504" xml:space="preserve">
<path d="M497.008,6.589H6.876v490.133h490.132V6.589z M439.326,36.058c-2.428,2.165-3.65,3.035-5.826,4.293
	c-13.881,8.023-41.441,4.508-50.297-4.293C401.059,35.533,422.469,35.567,439.326,36.058z M284.451,36.059h21.469
	c0,0,0,5.928,0,8.586c34.041,16.969,58.303,43.721,60.086,92.948c49.227,1.783,75.979,26.044,92.947,60.086c2.658,0,8.588,0,8.588,0
	v21.467c0,0-9.947,0-17.789,0c-6.809-20.323-19.418-37.264-36.188-48.762c-16.029-10.99-40.832-18.62-67.471-12.574
	c0.037-0.136,0.066-0.271,0.102-0.407c-0.137,0.035-0.271,0.064-0.408,0.1c6.047-26.638-1.584-51.44-12.574-67.47
	c-11.498-16.77-28.438-29.378-48.762-36.188C284.451,46.005,284.451,36.059,284.451,36.059z M467.541,120.396
	c-8.803-8.855-12.318-36.416-4.293-50.296c1.258-2.178,2.127-3.398,4.293-5.827C468.031,81.129,468.066,102.541,467.541,120.396z
	 M467.541,439.039c-2.166-2.429-3.035-3.649-4.293-5.827c-8.025-13.88-4.51-41.44,4.293-50.296
	C468.066,400.771,468.031,422.183,467.541,439.039z M262.063,36.058h18.303c0,0,0.1,11.629,0.1,21.748
	c26.656,6.915,56.09,31.212,61.949,67.497c2.002,12.39-0.287,26.314-2.76,38.335c0.145-0.046,0.291-0.085,0.436-0.13
	c-0.045,0.146-0.082,0.292-0.129,0.437c12.021-2.472,25.945-4.761,38.336-2.76c36.285,5.86,60.582,35.294,67.496,61.95
	c10.117,0,21.748,0.099,21.748,0.099v18.303c0,0-22.324,0-38.949,0c-7.561-31.798-21.629-56.757-51.521-65.938
	c-9.531-2.926-23.404-4.607-34.35-1.226c-7.514,2.32-21.135,13.615-22.387,22.694c-0.787,5.691,0.352,10.632,3.066,14.108
	c2.385,3.054,6.416,5.929,11.348,6.133c14.242,0.59,22.27-14.316,14.719-24.841c10.578-1.771,16.621,3.61,18.096,11.961
	c1.334-0.071,2.744-1.876,5.213-2.454c4.791-1.12,10.932-0.385,10.734,4.907c-13.467,2.618-18.398,16.614-29.441,23.309
	c-8.744,5.3-20.482,6.21-30.055,3.066c-13.01-4.273-20.25-17.161-21.113-32.555c-15.395-0.864-28.283-8.105-32.557-21.114
	c-3.145-9.572-2.234-21.311,3.066-30.055c6.695-11.043,20.691-15.976,23.309-29.442c5.293-0.196,6.027,5.943,4.908,10.734
	c-0.578,2.47-2.385,3.88-2.455,5.214c8.352,1.474,13.732,7.517,11.961,18.094c-10.525-7.549-25.432,0.477-24.84,14.721
	c0.203,4.931,3.078,8.962,6.133,11.347c3.475,2.714,8.416,3.853,14.107,3.066c9.078-1.253,20.373-14.873,22.693-22.387
	c3.381-10.945,1.701-24.819-1.227-34.349c-9.18-29.893-34.139-43.962-65.938-51.522C262.063,58.382,262.063,36.058,262.063,36.058z
	 M389.305,282.018c-5.738-15.729-22.852-20.083-38.947-25.455c0-1.807,0-3.348,0-4.907s0-3.1,0-4.907
	c16.096-5.372,33.209-9.726,38.947-25.456c7.074,2.457,11.295,9.327,10.121,19.015c11.773-0.873,24.229,3.297,24.229,11.347
	s-12.455,12.22-24.229,11.347C400.6,272.691,396.379,279.561,389.305,282.018z M264.517,245.829c1.14,4.826,9.036-1.08,11.654-2.147
	c7.923-3.226,15.435-0.84,17.788,2.454c0.84,1.173,1.473,3.555,1.473,5.52s-0.633,4.346-1.473,5.52
	c-2.354,3.294-9.865,5.68-17.788,2.454c-2.618-1.066-10.515-6.973-11.654-2.147c-0.976,4.13,8.543,9.518,13.188,10.428
	c9.14,1.789,16.007-2.325,21.774-4.601c0.105,9.101-5.906,12.085-11.346,15.642c4.188,4.712,8.621,9.18,8.904,17.798
	c-8.619-0.282-13.086-4.716-17.799-8.905c-3.557,5.44-6.541,11.452-15.642,11.348c2.274-5.768,6.39-12.636,4.6-21.774
	c-0.909-4.645-6.297-14.163-10.427-13.188c-4.826,1.14,1.08,9.036,2.146,11.654c3.227,7.922,0.84,15.434-2.453,17.787
	c-1.174,0.839-4.003,1.474-5.521,1.474s-4.347-0.635-5.521-1.474c-3.293-2.354-5.68-9.865-2.454-17.787
	c1.066-2.618,6.973-10.515,2.147-11.654c-4.13-0.976-9.518,8.543-10.427,13.188c-1.79,9.139,2.325,16.007,4.6,21.774
	c-9.1,0.104-12.085-5.907-15.641-11.348c-4.713,4.189-9.18,8.623-17.798,8.905c0.282-8.618,4.716-13.086,8.904-17.798
	c-5.439-3.557-11.452-6.541-11.347-15.642c5.768,2.275,12.636,6.39,21.774,4.601c4.645-0.91,14.163-6.298,13.188-10.428
	c-1.14-4.826-9.036,1.081-11.654,2.147c-7.921,3.226-15.434,0.84-17.787-2.454c-0.839-1.174-1.473-3.756-1.473-5.52
	c0-1.765,0.633-4.347,1.473-5.52c2.354-3.294,9.866-5.68,17.787-2.454c2.619,1.067,10.515,6.973,11.654,2.147
	c0.976-4.129-8.543-9.518-13.188-10.427c-9.138-1.79-16.006,2.325-21.774,4.601c-0.104-9.101,5.908-12.085,11.347-15.641
	c-4.188-4.712-8.622-9.18-8.904-17.798c8.619,0.283,13.085,4.716,17.798,8.905c3.556-5.44,6.541-11.452,15.641-11.347
	c-2.275,5.768-6.39,12.636-4.6,21.774c0.91,4.645,6.297,14.163,10.427,13.188c4.826-1.14-1.081-9.036-2.147-11.654
	c-3.227-7.922-0.84-15.434,2.454-17.787c1.174-0.839,3.048-1.473,5.521-1.473c2.472,0,4.347,0.634,5.521,1.473
	c3.293,2.354,5.68,9.865,2.453,17.787c-1.066,2.618-6.973,10.515-2.146,11.654c4.13,0.976,9.518-8.543,10.427-13.188
	c1.79-9.139-2.325-16.006-4.6-21.774c9.101-0.104,12.085,5.907,15.642,11.347c4.713-4.188,9.18-8.622,17.799-8.905
	c-0.283,8.619-4.717,13.086-8.904,17.798c5.439,3.556,11.451,6.541,11.346,15.641c-5.768-2.275-12.635-6.39-21.774-4.601
	C273.06,236.311,263.541,241.699,264.517,245.829z M251.942,79.946c8.05,0,12.221,12.455,11.348,24.228
	c9.688-1.173,16.558,3.047,19.015,10.121c-15.729,5.739-20.083,22.853-25.455,38.949c-1.808,0-3.348,0-4.907,0
	c-1.559,0-3.1,0-4.907,0c-5.372-16.096-9.726-33.209-25.456-38.949c2.458-7.073,9.327-11.294,19.015-10.121
	C239.722,92.4,243.892,79.945,251.942,79.946z M223.52,36.058h18.302c0,0,0,22.324,0,38.949
	c-31.798,7.561-56.757,21.63-65.938,51.522c-2.926,9.529-4.606,23.403-1.226,34.349c2.32,7.515,13.616,21.134,22.694,22.387
	c5.691,0.786,10.632-0.352,14.108-3.066c3.054-2.385,5.929-6.417,6.133-11.347c0.59-14.244-14.315-22.271-24.841-14.721
	c-1.771-10.577,3.61-16.62,11.961-18.094c-0.07-1.333-1.876-2.744-2.454-5.214c-1.12-4.791-0.385-10.93,4.907-10.734
	c2.618,13.466,16.614,18.398,23.308,29.442c5.3,8.744,6.21,20.483,3.066,30.055c-4.273,13.009-17.161,20.25-32.555,21.114
	c-0.864,15.394-8.105,28.282-21.114,32.555c-9.572,3.144-21.311,2.234-30.054-3.066c-11.043-6.695-15.976-20.69-29.442-23.309
	c-0.197-5.292,5.943-6.027,10.733-4.907c2.47,0.577,3.88,2.383,5.214,2.454c1.473-8.351,7.517-13.732,18.094-11.961
	c-7.55,10.525,0.477,25.431,14.721,24.841c4.931-0.204,8.961-3.079,11.347-6.133c2.714-3.476,3.853-8.417,3.066-14.108
	c-1.253-9.079-14.873-20.374-22.388-22.694c-10.945-3.381-24.819-1.7-34.349,1.226c-29.893,9.181-43.961,34.14-51.522,65.938
	c-16.625,0-38.949,0-38.949,0v-18.303c0,0,11.63-0.099,21.748-0.099c6.915-26.656,31.212-56.09,67.497-61.95
	c12.39-2,26.314,0.288,38.335,2.76c-0.046-0.145-0.085-0.291-0.13-0.437c0.146,0.045,0.292,0.084,0.437,0.13
	c-2.472-12.021-4.761-25.945-2.76-38.335c5.86-36.285,35.294-60.582,61.95-67.497C223.42,47.688,223.52,36.058,223.52,36.058z
	 M80.232,251.656c0-8.05,12.455-12.22,24.228-11.347c-1.173-9.688,3.048-16.558,10.121-19.015
	c5.739,15.729,22.853,20.083,38.949,25.456c0,1.807,0,3.348,0,4.907s0,3.1,0,4.907c-16.096,5.372-33.209,9.727-38.949,25.455
	c-7.072-2.457-11.294-9.326-10.121-19.015C92.687,263.876,80.231,259.706,80.232,251.656z M36.344,64.272
	c2.165,2.429,3.035,3.649,4.293,5.827c8.024,13.88,4.508,41.44-4.293,50.296C35.819,102.541,35.854,81.129,36.344,64.272z
	 M36.344,382.916c8.801,8.855,12.317,36.416,4.293,50.296c-1.259,2.178-2.128,3.398-4.293,5.827
	C35.854,422.183,35.819,400.771,36.344,382.916z M197.966,44.645c0-2.658,0-8.586,0-8.586h21.468c0,0,0,9.947,0,17.787
	c-20.323,6.811-37.264,19.419-48.762,36.188c-10.99,16.03-18.621,40.832-12.574,67.47c-0.136-0.035-0.271-0.064-0.407-0.1
	c0.035,0.136,0.064,0.271,0.1,0.407c-26.638-6.046-51.44,1.584-67.47,12.574c-16.77,11.498-29.378,28.439-36.188,48.762
	c-7.841,0-17.788,0-17.788,0V197.68c0,0,5.928,0,8.586,0c16.969-34.042,43.721-58.304,92.949-60.086
	C139.663,88.366,163.924,61.614,197.966,44.645z M120.682,36.058c-8.855,8.801-36.416,12.317-50.295,4.293
	c-2.177-1.259-3.398-2.129-5.827-4.293C81.416,35.567,102.828,35.533,120.682,36.058z M36.651,36.364
	c5.58-1.447,13.845-0.151,19.628-0.613c-2.955,1.464-7.201,3.26-5.827,7.974c1.135,3.893,23.531,18.738,36.801,19.627
	c18.628,1.249,33.758-4.64,44.163-10.734c-2.925,16.805-10.574,28.886-28.521,30.668c14.779,12.186,24.45,27.89,25.107,44.428
	c-16.538-0.657-32.242-10.328-44.428-25.107c-1.782,17.947-13.863,25.596-30.668,28.521c6.094-10.404,11.982-25.534,10.734-44.163
	c-0.89-13.27-15.734-35.667-19.628-36.801c-4.713-1.374-6.51,2.872-7.974,5.826C36.5,50.21,35.204,41.944,36.651,36.364z
	 M64.559,467.254c2.429-2.165,3.65-3.035,5.827-4.294c13.88-8.023,41.44-4.508,50.295,4.294
	C102.828,467.778,81.416,467.744,64.559,467.254z M87.253,439.959c-13.27,0.89-35.667,15.734-36.801,19.627
	c-1.374,4.715,2.872,6.511,5.827,7.975c-5.783-0.463-14.048,0.834-19.628-0.613c-1.447-5.58-0.151-13.846-0.614-19.628
	c1.464,2.954,3.261,7.2,7.974,5.826c3.894-1.134,18.738-23.531,19.628-36.801c1.249-18.629-4.64-33.759-10.734-44.163
	c16.805,2.926,28.886,10.574,30.668,28.521c12.186-14.778,27.89-24.45,44.428-25.107c-0.657,16.539-10.328,32.243-25.107,44.429
	c17.947,1.782,25.596,13.863,28.521,30.669C121.012,444.599,105.882,438.71,87.253,439.959z M219.434,467.253h-21.468
	c0,0,0-5.929,0-8.587c-34.042-16.969-58.303-43.721-60.086-92.947c-49.228-1.783-75.979-26.045-92.949-60.087
	c-2.658,0-8.586,0-8.586,0v-21.468c0,0,9.947,0,17.788,0c6.81,20.324,19.418,37.265,36.188,48.763
	c16.03,10.989,40.832,18.62,67.47,12.573c-0.036,0.137-0.065,0.271-0.1,0.407c0.136-0.035,0.271-0.064,0.407-0.1
	c-6.047,26.638,1.583,51.44,12.574,67.47c11.498,16.77,28.439,29.378,48.762,36.188
	C219.434,457.307,219.434,467.253,219.434,467.253z M241.822,467.254H223.52c0,0-0.099-11.63-0.099-21.748
	c-26.656-6.915-56.09-31.212-61.95-67.496c-2.001-12.391,0.288-26.314,2.76-38.336c-0.146,0.047-0.292,0.085-0.437,0.131
	c0.045-0.146,0.084-0.293,0.13-0.438c-12.021,2.473-25.945,4.761-38.335,2.76c-36.285-5.859-60.582-35.294-67.497-61.949
	c-10.118,0-21.748-0.1-21.748-0.1v-18.303c0,0,22.324,0,38.949,0c7.561,31.799,21.63,56.758,51.522,65.938
	c9.53,2.927,23.403,4.607,34.349,1.227c7.515-2.32,21.135-13.615,22.388-22.693c0.786-5.691-0.352-10.633-3.066-14.108
	c-2.386-3.054-6.417-5.929-11.347-6.134c-14.244-0.59-22.271,14.316-14.721,24.842c-10.577,1.771-16.621-3.609-18.094-11.961
	c-1.334,0.07-2.744,1.877-5.214,2.453c-4.79,1.121-10.93,0.385-10.733-4.906c13.466-2.618,18.398-16.613,29.442-23.309
	c8.743-5.3,20.482-6.21,30.054-3.066c13.009,4.273,20.25,17.161,21.114,32.555c15.394,0.864,28.282,8.105,32.555,21.115
	c3.144,9.571,2.234,21.311-3.066,30.055c-6.694,11.043-20.69,15.975-23.308,29.441c-5.292,0.196-6.027-5.943-4.907-10.734
	c0.577-2.469,2.383-3.88,2.454-5.213c-8.351-1.475-13.732-7.518-11.961-18.094c10.526,7.549,25.432-0.478,24.841-14.722
	c-0.204-4.931-3.079-8.962-6.133-11.347c-3.476-2.715-8.417-3.854-14.108-3.066c-9.078,1.252-20.374,14.872-22.694,22.387
	c-3.38,10.945-1.7,24.819,1.226,34.349c9.181,29.893,34.139,43.962,65.938,51.522C241.822,444.93,241.822,467.254,241.822,467.254z
	 M251.942,423.365c-8.05,0.001-12.221-12.454-11.348-24.227c-9.688,1.173-16.558-3.048-19.015-10.121
	c15.729-5.739,20.083-22.853,25.456-38.949c1.808,0,3.348,0,4.907,0c1.56,0,3.1,0,4.907,0c5.372,16.097,9.727,33.21,25.455,38.949
	c-2.457,7.073-9.327,11.294-19.015,10.121C264.163,410.911,259.992,423.366,251.942,423.365z M280.365,467.254h-18.303
	c0,0,0-22.324,0-38.949c31.799-7.561,56.758-21.63,65.938-51.522c2.928-9.529,4.607-23.403,1.227-34.349
	c-2.32-7.515-13.615-21.135-22.693-22.387c-5.691-0.787-10.633,0.352-14.107,3.066c-3.055,2.385-5.93,6.416-6.133,11.347
	c-0.592,14.244,14.314,22.271,24.84,14.722c1.771,10.576-3.609,16.619-11.961,18.094c0.07,1.333,1.877,2.744,2.455,5.213
	c1.119,4.791,0.385,10.931-4.908,10.734c-2.617-13.467-16.613-18.398-23.309-29.441c-5.301-8.744-6.211-20.483-3.066-30.055
	c4.273-13.01,17.162-20.251,32.557-21.115c0.863-15.394,8.104-28.281,21.113-32.555c9.572-3.144,21.311-2.233,30.055,3.066
	c11.043,6.695,15.975,20.69,29.441,23.309c0.197,5.291-5.943,6.027-10.734,4.906c-2.469-0.576-3.879-2.383-5.213-2.453
	c-1.475,8.352-7.518,13.732-18.096,11.961c7.551-10.525-0.477-25.432-14.719-24.842c-4.932,0.205-8.963,3.08-11.348,6.134
	c-2.715,3.476-3.854,8.417-3.066,14.108c1.252,9.078,14.873,20.373,22.387,22.693c10.945,3.381,24.818,1.7,34.35-1.227
	c29.893-9.18,43.961-34.139,51.521-65.938c16.625,0,38.949,0,38.949,0v18.303c0,0-11.631,0.1-21.748,0.1
	c-6.914,26.655-31.211,56.09-67.496,61.949c-12.391,2.001-26.314-0.287-38.336-2.76c0.047,0.145,0.084,0.291,0.129,0.438
	c-0.145-0.046-0.291-0.084-0.436-0.131c2.473,12.021,4.762,25.945,2.76,38.336c-5.859,36.284-35.293,60.581-61.949,67.496
	C280.465,455.624,280.365,467.254,280.365,467.254z M305.92,458.666c0,2.658,0,8.587,0,8.587h-21.469c0,0,0-9.946,0-17.787
	c20.324-6.811,37.264-19.419,48.762-36.188c10.99-16.029,18.621-40.832,12.574-67.47c0.137,0.035,0.271,0.064,0.408,0.1
	c-0.035-0.136-0.064-0.271-0.102-0.407c26.639,6.047,51.441-1.584,67.471-12.573c16.77-11.498,29.379-28.438,36.188-48.763
	c7.842,0,17.789,0,17.789,0v21.468c0,0-5.93,0-8.588,0c-16.969,34.042-43.721,58.304-92.947,60.087
	C364.223,414.945,339.961,441.697,305.92,458.666z M383.203,467.254c8.855-8.802,36.416-12.317,50.297-4.294
	c2.176,1.259,3.398,2.129,5.826,4.294C422.469,467.744,401.059,467.778,383.203,467.254z M467.234,466.947
	c-5.58,1.447-13.846,0.15-19.629,0.613c2.955-1.464,7.201-3.26,5.828-7.975c-1.135-3.893-23.531-18.737-36.803-19.627
	c-18.627-1.249-33.758,4.64-44.162,10.734c2.926-16.806,10.574-28.887,28.521-30.669c-14.779-12.186-24.451-27.89-25.107-44.429
	c16.539,0.657,32.244,10.329,44.428,25.107c1.783-17.947,13.865-25.596,30.67-28.521c-6.094,10.404-11.984,25.534-10.734,44.163
	c0.889,13.27,15.734,35.667,19.627,36.801c4.713,1.374,6.51-2.872,7.975-5.826C467.385,453.102,468.682,461.367,467.234,466.947z
	 M467.848,55.992c-1.465-2.954-3.262-7.2-7.975-5.826c-3.893,1.134-18.738,23.531-19.627,36.801
	c-1.25,18.629,4.641,33.759,10.734,44.163c-16.805-2.926-28.887-10.574-30.67-28.521c-12.184,14.779-27.889,24.45-44.428,25.107
	c0.656-16.538,10.328-32.243,25.107-44.428c-17.947-1.783-25.596-13.863-28.521-30.668c10.404,6.094,25.535,11.983,44.162,10.734
	c13.271-0.89,35.668-15.734,36.803-19.627c1.373-4.714-2.873-6.51-5.828-7.974c5.783,0.462,14.049-0.834,19.629,0.613
	C468.682,41.944,467.385,50.21,467.848,55.992z"/>
</svg>
