<?xml version="1.0" encoding="utf-8"?>
<!-- Generator: Adobe Illustrator 14.0.0, SVG Export Plug-In . SVG Version: 6.00 Build 43363)  -->
<!DOCTYPE svg PUBLIC "-//W3C//DTD SVG 1.1//EN" "http://www.w3.org/Graphics/SVG/1.1/DTD/svg11.dtd">
<svg version="1.1" id="Layer_1" xmlns="http://www.w3.org/2000/svg" xmlns:xlink="http://www.w3.org/1999/xlink" x="0px" y="0px"
	 width="504px" height="504px" viewBox="0 0 504 504" enable-background="new 0 0 504 504" xml:space="preserve">
<g>
	<path d="M7.315,7.238V497.39h490.133V7.238H7.315z M460.658,44.028c-0.037,10.654-9.016,32.855-27.588,27.588
		C427.802,53.044,450.005,44.065,460.658,44.028z M288.325,36.305c6.876,10.127,20.559,23.502,30.233,24.858
		c7.442,1.044,12.283-1.294,16.797-4.031c-1.858,17.655,4.647,32.578,21.499,32.249c7.128-0.14,13.777-3.223,14.78-10.75
		c-10.806,2.584-20.413-12.843-10.413-22.843c10-9.999,35.862,5.429,33.593,28.89c-0.815,8.423-5.321,14.971-9.406,18.812
		c-6.277,5.903-17.324,11.368-29.897,10.414c-11.486-0.871-21.275-7.132-29.226-13.101c-15.374-11.542-60.839-61.162-63.49-64.498
		C269.62,36.305,280.035,36.305,288.325,36.305z M340.394,340.33L340.394,340.33L340.394,340.33
		c9.367,3.709,23.99,5.92,35.944,3.025c-1.368,11.302-0.203,23.87,1.68,33.931c0,0.225,0,0.449,0,0.672c-0.224,0-0.447,0-0.672,0
		c-10.06-1.883-22.63-3.047-33.929-1.68C346.312,364.325,344.101,349.702,340.394,340.33z M358.87,322.854
		c-16.057-1.152-29.441-15.49-30.905-29.23c-1.775-16.672,4.882-35.191,21.499-34.6c14.75,0.524,21.697,19.513,11.422,31.576
		c13.715,10.838,26.495-6.815,25.53-20.827c16.362,8.77,37.525-17.351,37.31-17.468c0.216-0.117-20.947-26.237-37.31-17.468
		c0.965-14.012-11.815-31.665-25.53-20.827c10.275,12.063,3.328,31.051-11.422,31.576c-16.617,0.592-23.274-17.928-21.499-34.6
		c1.464-13.74,14.849-28.075,30.905-29.226c11.521-0.825,15.965,1.712,22.507,6.719c17.933,13.722,61.478,57.914,65.17,63.825
		c-3.692,5.911-47.237,50.104-65.17,63.826C374.835,321.141,370.392,323.68,358.87,322.854z M343.417,128.349
		c11.299,1.368,23.869,0.203,33.929-1.68c0.225,0,0.448,0,0.672,0c0,0.224,0,0.447,0,0.672c-1.883,10.061-3.048,22.629-1.68,33.929
		c-11.954-2.894-26.577-0.684-35.943,3.022h-0.001C344.101,154.926,346.312,140.303,343.417,128.349z M316.208,123.31
		c5.006,6.543,7.543,10.985,6.719,22.507c-1.15,16.057-15.486,29.441-29.227,30.905c-16.672,1.775-35.191-4.882-34.6-21.499
		c0.525-14.75,19.513-21.697,31.576-11.422c10.838-13.715-6.815-26.495-20.827-25.53c8.77-16.361-17.351-37.525-17.468-37.31
		c-0.117-0.216-26.237,20.948-17.468,37.31c-14.012-0.965-31.665,11.815-20.827,25.53c12.064-10.275,31.051-3.328,31.576,11.422
		c0.592,16.617-17.928,23.274-34.6,21.499c-13.74-1.464-28.075-14.849-29.226-30.905c-0.825-11.521,1.712-15.964,6.719-22.507
		c13.722-17.933,57.914-61.478,63.825-65.17C258.293,61.832,302.485,105.377,316.208,123.31z M309.996,309.919
		c-1.716-0.354-31.78-4.331-43.842,0.165c7.69-6.942,11.529-18.8,10.786-33.221c14.421,0.743,26.279-3.096,33.221-10.786
		C305.665,278.138,309.497,308.094,309.996,309.919z M194.603,266.077c6.941,7.69,18.801,11.529,33.221,10.786
		c-0.743,14.421,3.096,26.278,10.786,33.221c-12.061-4.496-42.125-0.52-43.842-0.165
		C195.267,308.094,199.099,278.138,194.603,266.077z M194.768,194.69c1.717,0.354,31.781,4.331,43.842-0.165
		c-7.69,6.942-11.529,18.8-10.786,33.221c-14.42-0.743-26.279,3.096-33.221,10.786C199.099,226.472,195.267,196.515,194.768,194.69z
		 M204.345,252.305c5.227-13.016,33.874-10.525,40.311-0.672c-0.133,0.229-0.279,0.451-0.432,0.672
		c0.152,0.221,0.299,0.443,0.432,0.672C238.219,262.83,209.571,265.32,204.345,252.305z M252.382,204.267
		c13.016,5.228,10.525,33.875,0.672,40.312c-0.229-0.133-0.451-0.279-0.672-0.432c-0.221,0.152-0.443,0.299-0.672,0.432
		C241.856,238.142,239.366,209.494,252.382,204.267z M251.71,260.031c0.229,0.133,0.451,0.279,0.672,0.432
		c0.221-0.152,0.443-0.299,0.672-0.432c9.854,6.437,12.344,35.084-0.672,40.312C239.366,295.115,241.856,266.468,251.71,260.031z
		 M260.108,252.977c0.133-0.229,0.279-0.451,0.432-0.672c-0.152-0.221-0.299-0.443-0.432-0.672
		c6.437-9.854,35.084-12.344,40.312,0.672C295.192,265.32,266.545,262.83,260.108,252.977z M276.94,227.746
		c0.743-14.421-3.096-26.278-10.786-33.221c12.062,4.496,42.126,0.52,43.842,0.165c-0.499,1.824-4.331,31.781,0.165,43.842
		C303.22,230.842,291.361,227.003,276.94,227.746z M143.542,55.788c10,10,0.393,25.427-10.413,22.843
		c1.003,7.527,7.653,10.61,14.78,10.75c16.853,0.329,23.357-14.594,21.499-32.249c4.514,2.737,9.354,5.075,16.797,4.031
		c9.675-1.356,23.357-14.731,30.233-24.858c8.561,0,18.808,0,25.53,0c-2.651,3.336-48.116,52.956-63.49,64.498
		c-7.95,5.969-17.739,12.229-29.226,13.101c-12.573,0.954-23.62-4.511-29.897-10.414c-4.085-3.841-8.591-10.389-9.406-18.812
		C107.68,61.217,133.543,45.789,143.542,55.788z M118.348,234.837c-16.361-8.77-37.525,17.351-37.31,17.468
		c-0.216,0.117,20.948,26.237,37.31,17.468c-0.965,14.012,11.815,31.665,25.53,20.827c-10.275-12.063-3.328-31.052,11.422-31.576
		c16.617-0.592,23.274,17.928,21.499,34.6c-1.464,13.74-14.849,28.078-30.905,29.23c-11.521,0.826-15.964-1.713-22.507-6.723
		c-17.933-13.723-61.478-57.915-65.17-63.826c3.692-5.911,47.237-50.104,65.17-63.825c6.543-5.007,10.985-7.544,22.507-6.719
		c16.057,1.15,29.441,15.485,30.905,29.226c1.775,16.672-4.882,35.191-21.499,34.6c-14.75-0.525-21.697-19.513-11.422-31.576
		C130.163,203.172,117.383,220.825,118.348,234.837z M161.347,376.278c-11.299-1.367-23.868-0.203-33.929,1.68
		c-0.224,0-0.448,0-0.672,0c0-0.223,0-0.447,0-0.672c1.883-10.061,3.048-22.629,1.68-33.931c11.954,2.895,26.577,0.684,35.943-3.025
		l0,0h0.001C160.663,349.702,158.453,364.325,161.347,376.278z M164.37,164.292L164.37,164.292
		c-9.367-3.706-23.99-5.916-35.944-3.022c1.368-11.3,0.203-23.868-1.68-33.929c0-0.225,0-0.448,0-0.672c0.224,0,0.448,0,0.672,0
		c10.061,1.883,22.63,3.048,33.929,1.68C158.453,140.303,160.663,154.926,164.37,164.292z M71.693,71.616
		c-18.572,5.268-27.551-16.934-27.587-27.588C54.759,44.065,76.962,53.044,71.693,71.616z M36.382,98.179
		c2.451-2.898,5.25-5.587,7.727-7.453c8.464-6.381,21.527-11.75,35.267-11.428c-0.322-13.739,5.047-26.803,11.427-35.267
		c1.867-2.477,4.555-5.275,7.454-7.727c6.478,0,8.147,0,13.71,0c-15.809,9.074-26.621,26.14-23.605,51.979
		c-25.839-3.016-42.904,7.798-51.979,23.604C36.382,105.958,36.382,104.586,36.382,98.179z M36.382,216.36
		c10.127-6.875,23.502-20.558,24.858-30.232c1.044-7.442-1.294-12.284-4.031-16.797c17.655,1.858,32.579-4.646,32.249-21.499
		c-0.139-7.128-3.223-13.777-10.75-14.78c2.584,10.806-12.843,20.413-22.842,10.413c-10-9.999,5.428-35.862,28.889-33.593
		c8.423,0.815,14.971,5.321,18.813,9.406c5.902,6.277,11.367,17.324,10.413,29.897c-0.871,11.486-7.132,21.275-13.101,29.226
		c-11.542,15.373-61.161,60.839-64.498,63.49C36.382,233.934,36.382,225.982,36.382,216.36z M36.382,262.718
		c3.337,2.651,52.956,48.116,64.498,63.496c5.969,7.956,12.229,17.749,13.101,29.238c0.954,12.572-4.511,23.619-10.413,29.896
		c-3.842,4.086-10.39,8.592-18.813,9.406c-23.461,2.27-38.889-23.594-28.889-33.592c9.999-10,25.426-0.393,22.842,10.412
		c7.527-1.002,10.611-7.652,10.75-14.779c0.33-16.858-14.594-23.365-32.249-21.507c2.737-4.514,5.075-9.358,4.031-16.806
		c-1.356-9.677-14.731-23.359-24.858-30.234C36.382,278.627,36.382,270.676,36.382,262.718z M44.106,460.599
		c0.036-10.654,9.015-32.855,27.587-27.588C76.962,451.583,54.759,460.562,44.106,460.599z M98.256,468.323
		c-2.899-2.451-5.587-5.25-7.454-7.727c-6.38-8.465-11.749-21.527-11.427-35.268c-13.739,0.322-26.803-5.047-35.267-11.428
		c-2.477-1.865-5.275-4.555-7.727-7.453c0-6.406,0-7.779,0-13.709c9.074,15.807,26.14,26.621,51.979,23.605
		c-3.016,25.838,7.797,42.904,23.605,51.979C106.403,468.323,104.733,468.323,98.256,468.323z M216.438,468.323
		c-6.876-10.127-20.559-23.502-30.233-24.859c-7.442-1.043-12.283,1.295-16.797,4.031c1.858-17.654-4.646-32.578-21.499-32.248
		c-7.127,0.139-13.777,3.223-14.78,10.75c10.806-2.584,20.413,12.842,10.413,22.842c-9.999,10-35.862-5.428-33.593-28.889
		c0.815-8.424,5.321-14.971,9.406-18.813c6.277-5.902,17.324-11.367,29.897-10.414c11.486,0.871,21.275,7.133,29.226,13.102
		c15.374,11.541,60.839,61.162,63.49,64.498C235.246,468.323,224.999,468.323,216.438,468.323z M188.557,381.317
		c-5.007-6.543-7.544-10.984-6.719-22.506c1.15-16.06,15.485-29.451,29.226-30.917c16.672-1.776,35.191,4.885,34.6,21.511
		c-0.525,14.75-19.512,21.697-31.576,11.422c-10.838,13.715,6.815,26.494,20.827,25.529c-8.77,16.361,17.351,37.525,17.468,37.311
		c0.117,0.215,26.237-20.949,17.468-37.311c14.012,0.965,31.665-11.814,20.827-25.529c-12.063,10.275-31.051,3.328-31.576-11.422
		c-0.592-16.626,17.928-23.287,34.6-21.511c13.74,1.466,28.076,14.857,29.227,30.917c0.824,11.521-1.713,15.963-6.719,22.506
		c-13.723,17.934-57.915,61.479-63.826,65.17C246.471,442.796,202.278,399.251,188.557,381.317z M361.222,448.839
		c-10-10-0.393-25.426,10.413-22.842c-1.003-7.527-7.652-10.611-14.78-10.75c-16.852-0.33-23.357,14.594-21.499,32.248
		c-4.514-2.736-9.354-5.074-16.797-4.031c-9.675,1.357-23.357,14.732-30.233,24.859c-8.29,0-18.705,0-25.53,0
		c2.651-3.336,48.116-52.957,63.49-64.498c7.95-5.969,17.739-12.23,29.226-13.102c12.573-0.953,23.62,4.512,29.897,10.414
		c4.085,3.842,8.591,10.389,9.406,18.813C397.084,443.411,371.222,458.839,361.222,448.839z M433.07,433.011
		c18.572-5.268,27.551,16.934,27.588,27.588C450.005,460.562,427.802,451.583,433.07,433.011z M468.382,406.448
		c-2.451,2.898-5.25,5.588-7.727,7.453c-8.464,6.381-21.527,11.75-35.267,11.428c0.322,13.74-5.047,26.803-11.427,35.268
		c-1.867,2.477-4.555,5.275-7.454,7.727c-5.967,0-8.262,0-13.709,0c15.808-9.074,26.62-26.141,23.604-51.979
		c25.839,3.016,42.904-7.799,51.979-23.605C468.382,398.614,468.382,400.396,468.382,406.448z M468.382,288.249
		c-10.127,6.875-23.502,20.558-24.858,30.234c-1.044,7.447,1.294,12.292,4.031,16.806c-17.655-1.858-32.578,4.648-32.249,21.507
		c0.139,7.127,3.223,13.777,10.75,14.779c-2.584-10.805,12.844-20.412,22.843-10.412c9.999,9.998-5.429,35.861-28.89,33.592
		c-8.423-0.814-14.971-5.32-18.812-9.406c-5.903-6.277-11.368-17.324-10.414-29.896c0.872-11.489,7.132-21.282,13.101-29.238
		c11.542-15.38,61.161-60.845,64.498-63.496C468.382,272.132,468.382,279.075,468.382,288.249z M468.382,241.892
		c-3.337-2.651-52.956-48.117-64.498-63.49c-5.969-7.95-12.229-17.739-13.101-29.226c-0.954-12.573,4.511-23.62,10.414-29.897
		c3.841-4.085,10.389-8.591,18.812-9.406c23.461-2.27,38.889,23.594,28.89,33.593c-9.999,10-25.427,0.393-22.843-10.413
		c-7.527,1.003-10.611,7.652-10.75,14.78c-0.329,16.853,14.594,23.357,32.249,21.499c-2.737,4.513-5.075,9.354-4.031,16.797
		c1.356,9.675,14.731,23.357,24.858,30.232C468.382,225.534,468.382,232.478,468.382,241.892z M468.382,111.888
		c-9.074-15.807-26.14-26.62-51.979-23.604c3.016-25.839-7.797-42.904-23.604-51.979c5.447,0,7.742,0,13.709,0
		c2.899,2.451,5.587,5.25,7.454,7.727c6.38,8.464,11.749,21.527,11.427,35.267c13.739-0.322,26.803,5.047,35.267,11.428
		c2.477,1.866,5.275,4.555,7.727,7.453C468.382,104.231,468.382,106.014,468.382,111.888z"/>
</g>
</svg>
